<?xml version="1.0" encoding="utf-8"?>
<svg version="1.1"  xmlns="http://www.w3.org/2000/svg" xmlns:xlink="http://www.w3.org/1999/xlink" x="0px" y="0px" width="40px" height="40px"
	 viewBox="0 0 40 40" enable-background="new 0 0 40 40" xml:space="preserve">
<g id="Lag_1">
	<g>
		<path fill="#000000" d="M31,16.2v-5C31,4.9,26,0,19.8,0S8.7,5,8.7,11.2l0,0v1.1H15v-1.1l0,0c0-2.7,2.2-5,5-5c2.8,0,5,2.2,5,5l0,0
			v5h-9.9h-1.3h-2.5H8.8c-2,0-3.8,1.6-3.8,3.8v3.8V25v2.5v1.3c0,6.3,5,11.2,11.2,11.2h7.6C30.1,40,35,35,35,28.8v-1.3V25v-1.3V20
			C34.8,18,33.1,16.2,31,16.2z M19.8,5c-3.5,0-6.3,2.7-6.3,6.3H11c0-4.9,3.9-8.7,8.7-8.7s8.7,3.9,8.7,8.7v5h-2.5v-5
			C26,7.7,23.1,5,19.8,5z M32.3,23.8V25v2.5v1.3c0,4.9-3.9,8.7-8.7,8.7h-7.6c-4.9,0-8.7-3.9-8.7-8.7v-1.3V25v-1.3V20
			c0-0.8,0.5-1.3,1.3-1.3c0.9,0,1.6,0,2.5,0h17.5c0.9,0,1.6,0,2.5,0c0.8,0,1.3,0.5,1.3,1.3v3.8H32.3z"/>
	</g>
	<path fill="#000000" d="M16.9,21L16.9,21L16.9,21H9v7l0,0v0c0,4.2,3.8,7,7.9,7h5.9c4.2,0,7.2-2.8,7.2-7v0v-7h-7.2H16.9z M21.5,29.4
		c-0.2,0.8-0.6,1.5-1.5,1.5c-0.8,0-1.2-0.6-1.5-1.5c-0.6-1.1-0.9-2.5-0.9-3.2c0-1.4,1.1-2.5,2.5-2.5c1.2,0,2.5,1.1,2.5,2.5
		C22.4,26.8,21.8,28.3,21.5,29.4z"/>
</g>
<g id="tekst">
</g>
</svg>
