<?xml version="1.0" encoding="utf-8"?>
<svg version="1.1"  xmlns="http://www.w3.org/2000/svg" xmlns:xlink="http://www.w3.org/1999/xlink" x="0px" y="0px" width="40px" height="40px"
	 viewBox="0 0 40 40" enable-background="new 0 0 40 40" xml:space="preserve">
<g id="Lag_1">
	<g>
		<path fill="#FFFFFF" d="M20,0.6C9.3,0.6,0.7,9.3,0.7,19.9S9.3,39.3,20,39.3s19.3-8.7,19.3-19.3S30.7,0.6,20,0.6z M4.7,19.9
			c0-0.5,0-0.8,0-1.2l2.2,3.6l1.7,0.9l1.5,0.6l0.3,0.9l0.8,2.8l2,1.7l-0.5,0.9l0.5,2.6l0.3,0.5l-0.2,0.5C8.3,31.4,4.7,26.1,4.7,19.9
			z M15.8,34.8l1.5-2.3l0.2-1.1l1.9-1.1l-0.3-1.5l0.9-1.1l-0.3-1.4l-2.5-0.5l-1.7-1.5L11.8,23l-0.3-0.9l-2.2-0.8l0.2-1.4l1.5-0.5
			l0.9,0.9l0.9-0.3l-0.5-1.2l2.6-2.5l-0.2-1.1l1.9-1.1l-0.5-1.7l-1.7-0.8l1.5-1.9l-2.9-2l-1.7-0.5c1.7-1.2,3.7-2,5.9-2.3v1.1L19.7,7
			v2l1.4,1.5l1.1-1.7l2-0.8l0.2-1.5l-0.5-1.2C26,5.9,28,6.8,29.7,8.2l-2.3,0.5L26.5,10l0.6,1.7l0.9-0.6l0.8,0.2l0.6-0.9l0.5,2.2
			l-1.4,1.1L27.1,13l-1.5,1.4L24.3,15l-0.2,1.1l0.6,0.9l2.3-1.2l0.9,0.5l0.9-0.2l1.1,1.2l2.5,0.3l-0.6,1.5l-2,0.3l-1.2-1.1l-0.9-0.3
			l-1.1,1.1l-1.9-0.5l-0.5,1.2l0.5,1.2l-0.6,1.7v1.2l0.8,1.2l2,0.5v1.1l0.6,0.9l-0.9,0.9l-0.3,1.4l0.8,1.7l0.3,1.9
			c-2.2,1.2-4.8,2-7.4,2C18.6,35.4,17.1,35.1,15.8,34.8z M24.9,12.1l-1.5,1.2l-0.6-1.1l0.6-1.1L24.9,12.1z"/>
	</g>
</g>
<g id="tekst">
</g>
</svg>
