<?xml version="1.0" encoding="utf-8"?>
<svg version="1.1"  xmlns="http://www.w3.org/2000/svg" xmlns:xlink="http://www.w3.org/1999/xlink" x="0px" y="0px" width="40px" height="40px"
	 viewBox="0 0 40 40" enable-background="new 0 0 40 40" xml:space="preserve">
<g id="Lag_1">
	<g>
		<g>
			<path fill="#FFFFFF" d="M1.5,19c-0.2,0-0.3,0-0.4,0.2l-0.7,2.4c0,0.2,0,0.3,0.2,0.4L2,22.4l0.9-3L1.5,19z M1.4,21.9l-0.7-0.2
				L0.9,21l0.7,0.2L1.4,21.9z M1.9,20.2L1.2,20l0.2-0.7l0.7,0.2L1.9,20.2z M3.6,19.2c-0.2,0-0.3,0-0.4,0.2l-0.9,3.1
				c0,0.2,0,0.3,0.2,0.4l2.3,0.6l1.1-3.7L3.6,19.2z M33.5,31.4c-0.3-1.7-1-3.1-2.1-4c1.8-2.1,2.7-5.5,2.6-7.8l-3.5-0.9l3.1-12
				c0.3-1.3-1.6-1.7-1.9-0.5l-3.1,12l-3.5-0.9c-1.2,2-2,5.6-1.4,8.3c-1.9,0.4-3.5,1.4-4.2,2.8c-0.9,0-1.6,0.1-2.3,0.2
				c-2.3-2.4-2.6-6.1-0.7-8.8l0,0l1.6-2.3c0.1,0.1,0.3,0.1,0.4-0.1l0.1-0.2l0,0l2-0.8l-3.1-2.2l-0.1,2.2l-0.1,0.2
				c-0.1,0.1-0.1,0.3,0.1,0.5l0,0l-1.6,2.3l0,0c-1.3,1.9-1.7,4.1-1.2,6.2c-0.2-0.3-0.4-0.5-0.7-0.8c0,0,0,0,0,0
				c-0.7-2.1-0.9-4.7-0.4-6.7l-0.8-0.2c-0.4,1.8-0.3,4,0.1,6c-0.7-0.4-1.4-0.8-2.1-1l0,0L8,22l0,0c0-0.2,0-0.4-0.2-0.4l-0.2-0.1
				l-1.4-1.6l-1.1,3.7L7.2,23l0,0l0.2,0.1c0.2,0,0.3,0,0.4-0.2l2.7,0.8l0.2-0.8l-0.2,0.8c1.1,0.3,2,0.8,2.8,1.6
				c0.5,1.4,1.2,2.5,2,3.3c0.1,0.2,0.1,0.6,0.1,0.8c-1.3,0.6-2.2,1.7-3,3.7c9,0,18,0,27,0C40.1,29.5,35.8,27.6,33.5,31.4z
				 M23.3,12.3c0.1-0.1,0.1-0.3-0.1-0.4l-2-1.4c-0.1-0.1-0.3-0.1-0.4,0.1l-0.8,1.2l2.5,1.8L23.3,12.3z M21.2,11.7l-0.6-0.4l0.4-0.6
				l0.6,0.4L21.2,11.7z M22.5,11.7l0.6,0.4l-0.4,0.6L22,12.3L22.5,11.7z M22.4,14.2c0.1-0.1,0.1-0.3-0.1-0.4l-2.7-1.9
				c-0.1-0.1-0.3-0.1-0.4,0.1l-1.4,1.9l3.2,2.2L22.4,14.2z M16.9,8.5c0-0.2-0.1-0.3-0.2-0.4l-2.4-0.5c-0.2,0-0.3,0.1-0.4,0.2
				l-0.3,1.4l3,0.7L16.9,8.5z M14.7,8.7L14,8.6l0.2-0.7L14.9,8L14.7,8.7z M15.7,9l0.2-0.7l0.7,0.2l-0.2,0.7L15.7,9z M16.8,10.6
				c0-0.2-0.1-0.3-0.2-0.4l-3.2-0.7c-0.2,0-0.3,0.1-0.4,0.2l-0.5,2.3l3.8,0.9L16.8,10.6z M13.2,14.6c0,0.2,0.1,0.3,0.2,0.4l0,0
				l-0.6,2.8l0.8,0.2l0.6-2.8c0.2,0,0.3-0.1,0.4-0.2l0.1-0.2l0,0l1.5-1.5l-3.7-0.8l0.7,2L13.2,14.6z"/>
		</g>
	</g>
</g>
<g id="tekst">
</g>
</svg>
