<?xml version="1.0" encoding="utf-8"?>
<svg version="1.1"  xmlns="http://www.w3.org/2000/svg" xmlns:xlink="http://www.w3.org/1999/xlink" x="0px" y="0px" width="40px" height="40px"
	 viewBox="0 0 40 40" enable-background="new 0 0 40 40" xml:space="preserve">
<g id="Lag_1">
	<g>
		<g>
			<path fill="#FFFFFF" d="M12.5,14.8h-1.4v7.7h1.2c2.4,0,3.7-1.3,3.7-3.9C15.9,16.1,14.8,14.8,12.5,14.8z M20,5C9,5,0,11.3,0,19
				s9,14,20,14c11,0,20-6.3,20-14S31,5,20,5z M16.9,23.1c-1.1,1-2.7,1.5-4.9,1.5H8.6v-12h3.8c2,0,3.5,0.5,4.5,1.6
				c1.1,1,1.6,2.5,1.6,4.3C18.6,20.5,18,22,16.9,23.1z M27.8,24.6l-3.2-5l-1.1,0.8v4.2H21v-12h2.5v5.5l1-1.4l3.3-4.1h2.8l-4.2,5.3
				l4.2,6.7H27.8z"/>
		</g>
	</g>
</g>
<g id="tekst">
</g>
</svg>
