<?xml version="1.0" encoding="utf-8"?>
<svg version="1.1"  xmlns="http://www.w3.org/2000/svg" xmlns:xlink="http://www.w3.org/1999/xlink" x="0px" y="0px" width="40px" height="40px"
	 viewBox="0 0 40 40" enable-background="new 0 0 40 40" xml:space="preserve">
<g id="Lag_1_1_">
	<g>
		<g>
			<path fill="#FFFFFF" d="M12.7,15h-1.5v7.6h1.1c2.4,0,3.6-1.3,3.6-3.9C16.1,16.3,15,15,12.7,15z M20,5.5
				C9.2,5.5,0.5,11.6,0.5,19.2S9.2,33,20,33s19.5-6.1,19.5-13.7S30.8,5.5,20,5.5z M17.1,23.1c-1.1,1-2.7,1.5-4.7,1.5H9V12.8h3.7
				c1.9,0,3.4,0.5,4.5,1.6c1.1,1,1.6,2.4,1.6,4.2C18.7,20.7,18.1,22.1,17.1,23.1z M27.8,24.6l-3.1-4.8l-1.1,0.8v4.2h-2.4V12.9h2.4
				v5.5l1-1.5l3.2-4h2.7l-4,5.2l4.2,6.5H27.8z"/>
		</g>
	</g>
</g>
<g id="tekst">
</g>
</svg>
