<?xml version="1.0" encoding="utf-8"?>
<svg version="1.1"  xmlns="http://www.w3.org/2000/svg" xmlns:xlink="http://www.w3.org/1999/xlink" x="0px" y="0px" width="40px" height="40px"
	 viewBox="0 0 40 40" enable-background="new 0 0 40 40" xml:space="preserve">
<g id="Lag_1">
	<g>
		<g>
			<g>
				<path fill="#FFFFFF" d="M3.2,9.3h33.7v27.2H3.2V9.3z M0.6,2.9v36.3h38.9V2.9h-5.2c0,1.7,0,3.5,0,5.2h-6.5c0-1.7,0-3.5,0-5.2
					H12.3c0,1.7,0,3.5,0,5.2H5.8c0-1.7,0-3.5,0-5.2H0.6z"/>
			</g>
			<g>
				<rect x="7.1" y="0.3" fill="#FFFFFF" width="3.9" height="6.5"/>
			</g>
			<g>
				<rect x="29.2" y="0.3" fill="#FFFFFF" width="3.9" height="6.5"/>
			</g>
			<g>
				<rect x="4.5" y="10.6" fill="#FFFFFF" width="5.2" height="5.2"/>
			</g>
			<g>
				<rect x="11" y="10.6" fill="#FFFFFF" width="5.2" height="5.2"/>
			</g>
			<g>
				<rect x="17.5" y="10.6" fill="#FFFFFF" width="5.2" height="5.2"/>
			</g>
			<g>
				<rect x="24" y="10.6" fill="#FFFFFF" width="5.2" height="5.2"/>
			</g>
			<g>
				<rect x="30.5" y="10.6" fill="#FFFFFF" width="5.2" height="5.2"/>
			</g>
			<g>
				<rect x="4.5" y="17.1" fill="#FFFFFF" width="5.2" height="5.2"/>
			</g>
			<g>
				<rect x="11" y="17.1" fill="#FFFFFF" width="5.2" height="5.2"/>
			</g>
			<g>
				<rect x="17.5" y="17.1" fill="#FFFFFF" width="5.2" height="5.2"/>
			</g>
			<g>
				<rect x="24" y="17.1" fill="#FFFFFF" width="5.2" height="5.2"/>
			</g>
			<g>
				<rect x="30.5" y="17.1" fill="#FFFFFF" width="5.2" height="5.2"/>
			</g>
			<g>
				<rect x="4.5" y="23.6" fill="#FFFFFF" width="5.2" height="5.2"/>
			</g>
			<g>
				<rect x="11" y="23.6" fill="#FFFFFF" width="5.2" height="5.2"/>
			</g>
			<g>
				<rect x="17.5" y="23.6" fill="#FFFFFF" width="5.2" height="5.2"/>
			</g>
			<g>
				<rect x="24" y="23.6" fill="#FFFFFF" width="5.2" height="5.2"/>
			</g>
			<g>
				<rect x="30.5" y="23.6" fill="#FFFFFF" width="5.2" height="5.2"/>
			</g>
			<g>
				<rect x="11" y="30.1" fill="#FFFFFF" width="5.2" height="5.2"/>
			</g>
		</g>
	</g>
</g>
<g id="tekst">
</g>
</svg>
