<?xml version="1.0" encoding="utf-8"?>
<svg version="1.1"  xmlns="http://www.w3.org/2000/svg" xmlns:xlink="http://www.w3.org/1999/xlink" x="0px" y="0px" width="40px" height="40px"
	 viewBox="0 0 40 40" enable-background="new 0 0 40 40" xml:space="preserve">
<g id="Lag_1_1_">
	<g>
		<path d="M8.8,1.5c-4.7,0-8.3,4.4-8.3,9.8S4.2,21,8.8,21s8.3-4.4,8.3-9.8S13.5,1.5,8.8,1.5z M8.8,16.7c-2.3,0-4.2-2.5-4.2-5.5
			s2-5.5,4.2-5.5S13,8.2,13,11.2S11.1,16.7,8.8,16.7z M31.2,18.1c-4.7,0-8.3,4.4-8.3,9.8s3.7,9.8,8.3,9.8s8.3-4.4,8.3-9.8
			S35.7,18.1,31.2,18.1z M31.2,33.6c-2.3,0-4.2-2.5-4.2-5.5s2-5.5,4.2-5.5s4.2,2.5,4.2,5.5S33.4,33.6,31.2,33.6z M11.1,37.2
			c-0.3,0.4-0.8,0.6-1.4,0.3l-1.8-1.1c-0.3-0.1-0.4-0.4-0.4-0.6c0-0.3,0-0.6,0.1-0.7L28.8,1.9c0.3-0.4,0.8-0.6,1.4-0.3L32,2.7
			c0.3,0.1,0.4,0.4,0.4,0.6c0,0.3,0,0.6-0.1,0.7L11.1,37.2z"/>
	</g>
</g>
<g id="tekst">
</g>
</svg>
