<?xml version="1.0" encoding="utf-8"?>
<svg version="1.1"  xmlns="http://www.w3.org/2000/svg" xmlns:xlink="http://www.w3.org/1999/xlink" x="0px" y="0px" width="40px" height="40px"
	 viewBox="0 0 40 40" enable-background="new 0 0 40 40" xml:space="preserve">
<g id="Lag_1">
	<g>
		<g>
			<path fill="#FFFFFF" d="M39.4,28.1H0.6c-0.3,0-0.5,0.2-0.5,0.5v1.8c0,0.3,0.2,0.5,0.5,0.5h38.8c0.3,0,0.5-0.2,0.5-0.5v-1.8
				C39.9,28.3,39.6,28.1,39.4,28.1z M1,35.5c0.5,0,0.9-0.4,0.9-0.9c0-0.5-0.4-0.9-0.9-0.9S0,34.1,0,34.6C0,35.1,0.4,35.5,1,35.5z
				 M2.7,36.3c-0.5,0-0.9,0.4-0.9,0.9s0.4,0.9,0.9,0.9s0.9-0.4,0.9-0.9S3.2,36.3,2.7,36.3z M4.4,35.5c0.5,0,0.9-0.4,0.9-0.9
				c0-0.5-0.4-0.9-0.9-0.9s-0.9,0.4-0.9,0.9C3.5,35.1,3.9,35.5,4.4,35.5z M6.1,38.1c0.5,0,0.9-0.4,0.9-0.9s-0.4-0.9-0.9-0.9
				c-0.5,0-0.9,0.4-0.9,0.9S5.6,38.1,6.1,38.1z M7.8,35.5c0.5,0,0.9-0.4,0.9-0.9c0-0.5-0.4-0.9-0.9-0.9s-0.9,0.4-0.9,0.9
				C6.9,35.1,7.3,35.5,7.8,35.5z M9.6,38.1c0.5,0,0.9-0.4,0.9-0.9s-0.4-0.9-0.9-0.9c-0.5,0-0.9,0.4-0.9,0.9S9.1,38.1,9.6,38.1z
				 M11.3,35.5c0.5,0,0.9-0.4,0.9-0.9c0-0.5-0.4-0.9-0.9-0.9c-0.5,0-0.9,0.4-0.9,0.9C10.4,35.1,10.8,35.5,11.3,35.5z M13.1,38.1
				c0.5,0,0.9-0.4,0.9-0.9s-0.4-0.9-0.9-0.9s-0.9,0.4-0.9,0.9S12.6,38.1,13.1,38.1z M14.7,35.5c0.5,0,0.9-0.4,0.9-0.9
				c0-0.5-0.4-0.9-0.9-0.9c-0.5,0-0.9,0.4-0.9,0.9C13.8,35.1,14.2,35.5,14.7,35.5z M16.6,36.3c-0.5,0-0.9,0.4-0.9,0.9
				s0.4,0.9,0.9,0.9s0.9-0.4,0.9-0.9S17.1,36.3,16.6,36.3z M18.2,35.5c0.5,0,0.9-0.4,0.9-0.9c0-0.5-0.4-0.9-0.9-0.9
				c-0.5,0-0.9,0.4-0.9,0.9C17.3,35.1,17.7,35.5,18.2,35.5z M20.1,36.3c-0.5,0-0.9,0.4-0.9,0.9s0.4,0.9,0.9,0.9s0.9-0.4,0.9-0.9
				S20.6,36.3,20.1,36.3z M21.6,35.5c0.5,0,0.9-0.4,0.9-0.9c0-0.5-0.4-0.9-0.9-0.9c-0.5,0-0.9,0.4-0.9,0.9
				C20.7,35.1,21.1,35.5,21.6,35.5z M23.5,36.3c-0.5,0-0.9,0.4-0.9,0.9s0.4,0.9,0.9,0.9c0.5,0,0.9-0.4,0.9-0.9S24.1,36.3,23.5,36.3z
				 M26,34.6c0-0.5-0.4-0.9-0.9-0.9c-0.5,0-0.9,0.4-0.9,0.9c0,0.5,0.4,0.9,0.9,0.9C25.6,35.5,26,35.1,26,34.6z M27,36.3
				c-0.5,0-0.9,0.4-0.9,0.9s0.4,0.9,0.9,0.9c0.5,0,0.9-0.4,0.9-0.9S27.5,36.3,27,36.3z M29.4,34.6c0-0.5-0.4-0.9-0.9-0.9
				s-0.9,0.4-0.9,0.9c0,0.5,0.4,0.9,0.9,0.9S29.4,35.1,29.4,34.6z M30.5,36.3c-0.5,0-0.9,0.4-0.9,0.9s0.4,0.9,0.9,0.9
				s0.9-0.4,0.9-0.9S31,36.3,30.5,36.3z M32.9,34.6c0-0.5-0.4-0.9-0.9-0.9s-0.9,0.4-0.9,0.9c0,0.5,0.4,0.9,0.9,0.9
				S32.9,35.1,32.9,34.6z M34,36.3c-0.5,0-0.9,0.4-0.9,0.9s0.4,0.9,0.9,0.9s0.9-0.4,0.9-0.9S34.5,36.3,34,36.3z M36.3,34.6
				c0-0.5-0.4-0.9-0.9-0.9s-0.9,0.4-0.9,0.9c0,0.5,0.4,0.9,0.9,0.9S36.3,35.1,36.3,34.6z M37.5,38.1c0.5,0,0.9-0.4,0.9-0.9
				s-0.4-0.9-0.9-0.9c-0.5,0-0.9,0.4-0.9,0.9S37,38.1,37.5,38.1z M38.9,33.7c-0.5,0-0.9,0.4-0.9,0.9c0,0.5,0.4,0.9,0.9,0.9
				s0.9-0.4,0.9-0.9C39.8,34.1,39.4,33.7,38.9,33.7z M39.8,32.1H0V33h39.7V32.1z M0,39.6h39.7v-0.9H0V39.6z M12.3,27.7h5.1
				c1.2,0,2.4-0.8,3.1-1.5c2-1.7,6.4-5.1,12.6-6.2c1.2-0.2,2.1-1.1,2.6-2.2c0.5-1.1,0.4-2.4-0.3-3.4l-1.7-2.5
				c-1-1.5-1.5-3.1-1.5-4.9V0h-6.4l-1,11.3l-5.5,9.6c-0.7,1.4-2,2.3-3.4,2.8L11.8,25c-0.5,0.1-0.7,1.1-0.6,1.6
				C11.3,27,11.8,27.7,12.3,27.7z M27.7,14.9l0.3-0.5c0-0.1,0.1-0.1,0.2-0.1c0.2,0.1,0.5,0.2,0.8,0.2c0.1,0,0.3,0,0.4-0.1
				c0.5-0.1,0.9-0.5,1.1-1.1c0.2-0.6-0.2-1.5-0.8-1.8l-0.1,0c0,0-0.1-0.1-0.1-0.1l-0.2-2c0-0.1,0.1-0.2,0.1-0.2L30,9.3
				c0.1,0,0.2,0.1,0.2,0.1l0.2,1.5c0,0,0,0.1,0.1,0.1c1,0.7,1.2,2.1,0.6,3.1c-0.3,0.6-0.8,1-1.5,1.1c-0.2,0.1-0.4,0.1-0.6,0.1
				c-0.4,0-0.8-0.1-1.2-0.3l0,0C27.7,15,27.6,14.9,27.7,14.9z"/>
		</g>
	</g>
</g>
<g id="tekst">
</g>
</svg>
