<?xml version="1.0" encoding="utf-8"?>
<svg version="1.1"  xmlns="http://www.w3.org/2000/svg" xmlns:xlink="http://www.w3.org/1999/xlink" x="0px" y="0px" width="40px" height="40px"
	 viewBox="0 0 40 40" enable-background="new 0 0 40 40" xml:space="preserve">
<g id="Lag_1">
	<g>
		<g>
			<path fill="#FFFFFF" d="M10.6,9.1h19.5c0.5,0,0.8-0.4,0.8-0.8V7.1c0-0.5-0.4-0.8-0.8-0.8H10.6c-0.5,0-0.8,0.4-0.8,0.8v1.2
				C9.8,8.7,10.2,9.1,10.6,9.1z M13.2,14.3h2.8c0.3,0,0.6-0.3,0.6-0.6v-2.8c0-0.3-0.3-0.6-0.6-0.6h-2.8c-0.3,0-0.6,0.3-0.6,0.6v2.8
				C12.6,14,12.9,14.3,13.2,14.3z M29.3,10.8c0-0.3-0.3-0.6-0.6-0.6H18.4c-0.3,0-0.6,0.3-0.6,0.6v2.8c0,0.3,0.3,0.6,0.6,0.6h10.3
				c0.3,0,0.6-0.3,0.6-0.6V10.8z M28.7,15.4h-2.8c-0.3,0-0.6,0.3-0.6,0.6v2.8c0,0.3,0.3,0.6,0.6,0.6h2.8c0.3,0,0.6-0.3,0.6-0.6V16
				C29.3,15.7,29,15.4,28.7,15.4z M24.1,18.8V16c0-0.3-0.3-0.6-0.6-0.6H13.2c-0.3,0-0.6,0.3-0.6,0.6v2.8c0,0.3,0.3,0.6,0.6,0.6h10.3
				C23.8,19.4,24.1,19.1,24.1,18.8z M13.2,20.6l3.4,0.6V21c0-0.3-0.7-0.5-1-0.5H13.2z M39.5,28.6l-38-9.1c-0.5-0.1-1.1,0.2-1.2,0.7
				c-0.1,0.5,0.2,1.1,0.7,1.2l38,9.1c0.1,0,0.2,0,0.2,0c0.4,0,0.8-0.3,1-0.8C40.3,29.2,40,28.7,39.5,28.6z M29.3,24
				c0-0.1,0-0.1,0-0.2V21c0-0.3-0.7-0.5-1-0.5H17.9c-0.3,0,0,0.1,0,0.5v0.3L29.3,24z"/>
		</g>
	</g>
</g>
<g id="tekst">
</g>
</svg>
