<?xml version="1.0" encoding="utf-8"?>
<svg version="1.1"  xmlns="http://www.w3.org/2000/svg" xmlns:xlink="http://www.w3.org/1999/xlink" x="0px" y="0px" width="40px" height="40px"
	 viewBox="0 0 40 40" enable-background="new 0 0 40 40" xml:space="preserve">
<g id="Lag_1">
	<path fill="#FFFFFF" d="M20,0C9,0,0,9,0,20c0,11,9,20,20,20c11,0,20-9,20-20C40,9,31,0,20,0z M21.3,7.5c1.8,0,3.2,1.5,3.2,3.3
		s-1.4,3.3-3.2,3.3c-1.8,0-3.2-1.5-3.2-3.3S19.5,7.5,21.3,7.5z M24.9,30.7c-0.3,0.3-0.7,0.5-1.1,0.7c-0.4,0.2-0.8,0.4-1.3,0.5
		c-0.5,0.1-1.7,0.2-2.2,0.2c-1.2,0-2.1-0.3-2.8-0.9c-0.6-0.6-1.3-1.4-1.3-2.4c0-0.4,0-0.9,0.1-1.5c0,0,1.3-7.4,1.3-7.4
		c0-0.1,0.1-0.3,0.1-0.4c0-0.1,0-0.3,0.1-0.4c0-0.1,0-0.2,0-0.3c0-0.1,0-0.2,0-0.2c0-0.3,0-0.5-0.1-0.7c-0.1-0.2-0.2-0.3-0.3-0.4
		c-0.1-0.1-0.3-0.2-0.5-0.2c-0.2,0-0.5,0-0.8,0c0,0-1.1,0.1-1.1-0.7c0-0.9,1.4-0.6,1.4-0.6c1.3,0,4.7,0,6.4,0c1.8,0,0.8,3,1.1,1.7
		c-0.6,3-1.5,7.7-1.5,7.7c-0.1,0.6-0.2,0.8-0.3,1.3C22,27.2,22,27.7,22,28.1c0,0.5,0.1,0.8,0.3,1.1c0.2,0.2,0.5,0.4,0.8,0.4
		c0.3,0,0.6-0.1,0.9-0.2c0.5-0.2,1.5-1.1,1.8-0.5C26.3,29.6,25.3,30.3,24.9,30.7z"/>
</g>
<g id="tekst">
</g>
</svg>
