<?xml version="1.0" encoding="utf-8"?>
<svg version="1.1"  xmlns="http://www.w3.org/2000/svg" xmlns:xlink="http://www.w3.org/1999/xlink" x="0px" y="0px" width="40px" height="40px"
	 viewBox="0 0 40 40" enable-background="new 0 0 40 40" xml:space="preserve">
<g id="Lag_1">
	<g id="Layer_x0020_1_2_">
		<path fill="#395F77" d="M1.7,7.9H5h6.3V4.7c0-1.4,1.1-2.5,2.5-2.5h12.4c1.4,0,2.5,1.1,2.5,2.5v3.2H35h3.3c0.9,0,1.7,0.7,1.7,1.7
			v9.6h-3.3H25.2v-0.9c0-0.9-0.7-1.7-1.7-1.7h-7.2c-0.9,0-1.7,0.7-1.7,1.7v0.9H3.3H0V9.5C0,8.6,0.7,7.9,1.7,7.9z M13.8,7.9h12.4V6.3
			c0-1-0.8-1.8-1.8-1.8h-8.9c-1,0-1.8,0.8-1.8,1.8V7.9z M1.9,20.4h12.8v1.9c0,0.9,0.7,1.7,1.7,1.7h7.2c0.9,0,1.7-0.7,1.7-1.7v-1.9
			h12.8v16.1c0,0.9-0.7,1.7-1.7,1.7H3.6c-0.9,0-1.7-0.7-1.7-1.7V20.4z"/>
	</g>
</g>
<g id="tekst">
</g>
</svg>
