<?xml version="1.0" encoding="utf-8"?>
<svg version="1.1"  xmlns="http://www.w3.org/2000/svg" xmlns:xlink="http://www.w3.org/1999/xlink" x="0px" y="0px" width="40px" height="40px"
	 viewBox="0 0 40 40" enable-background="new 0 0 40 40" xml:space="preserve">
<g id="Lag_1">
	<g>
		<g>
			<path fill="#000000" d="M20,0C9,0,0,9,0,20c0,11,9,20,20,20c11,0,20-9,20-20C40,9,31,0,20,0z M20.6,27.7
				c-0.3,0.3-0.7,0.4-1.2,0.4c-0.6,0-1-0.1-1.2-0.4c-0.1-0.3-0.3-0.7-0.3-1.2c0-1.1,0.6-1.7,1.5-1.7c0.6,0,1,0.1,1.2,0.4
				s0.4,0.7,0.4,1.2C21,27,20.8,27.4,20.6,27.7z M24.3,17.2c-0.1,0.4-0.4,0.8-0.7,1.2c-0.3,0.4-0.8,0.8-1.7,1.5
				c-0.7,0.6-1.1,1-1.4,1.2s-0.3,0.8-0.3,1.4v0.6h-2.1V23v-0.7c0-0.8,0.2-1.4,0.4-1.9c0.3-0.6,0.9-1.1,1.5-1.7
				c0.8-0.7,1.4-1.2,1.7-1.5c0.3-0.3,0.4-0.8,0.4-1.4c0-0.6-0.1-1.1-0.6-1.4c-0.4-0.3-1-0.6-1.8-0.6c-0.7,0-1.4,0.1-1.9,0.3
				c-0.6,0.1-1.1,0.4-1.7,0.7l-1-1.8c1.5-0.8,3-1.2,4.7-1.2c1.4,0,2.5,0.4,3.3,1.1c0.8,0.7,1.2,1.7,1.2,2.9
				C24.6,16.4,24.4,16.8,24.3,17.2z"/>
		</g>
	</g>
</g>
<g id="tekst">
</g>
</svg>
