<?xml version="1.0" encoding="utf-8"?>
<svg version="1.1"  xmlns="http://www.w3.org/2000/svg" xmlns:xlink="http://www.w3.org/1999/xlink" x="0px" y="0px" width="40px" height="40px"
	 viewBox="0 0 40 40" enable-background="new 0 0 40 40" xml:space="preserve">
<g id="Lag_1">
	<g>
		<g>
			<path fill="#FFFFFF" d="M0.2,0v3v34.2c0,1.3,0,2.8,0,2.8h39.7c0,0,0-1.3,0-3V3V0H0.2z M12.2,33.3H6.3v-18h5.8V33.3z M9.2,12.8
				c-2.2,0-3.3-1.5-3.3-3.2s1.3-3.2,3.3-3.2s3.3,1.3,3.3,3.2S11.2,12.8,9.2,12.8z M33.7,33.3h-5.8v-9.5c0-2.3-0.8-4-3-4
				c-1.7,0-2.5,1-3.2,2.2c-0.2,0.5-0.2,0.8-0.2,1.5v10.2h-6c0,0,0-16.2,0-17.8h5.8v2.5c0.8-1.3,2.3-3,5.5-3c4,0,7,2.5,7,8L33.7,33.3
				z"/>
		</g>
	</g>
</g>
<g id="tekst">
</g>
</svg>
