<?xml version="1.0" encoding="utf-8"?>
<svg version="1.1"  xmlns="http://www.w3.org/2000/svg" xmlns:xlink="http://www.w3.org/1999/xlink" x="0px" y="0px" width="40px" height="40px"
	 viewBox="0 0 40 40" enable-background="new 0 0 40 40" xml:space="preserve">
<g id="Lag_1">
	<g>
		<g>
			<path fill="#FFFFFF" d="M16.4,26l9.6-5.8l-9.6-5.8V26z M35.8,0.3H4.2C2,0.3,0.3,2,0.3,4.2v31.6c0,2.1,1.7,3.8,3.8,3.8h31.6
				c2.1,0,3.8-1.7,3.8-3.8V4.2C39.7,2,38,0.3,35.8,0.3z M35.8,21.7c0,2.6-0.2,5.3-0.2,5.3s-0.2,2.4-1.3,3.2
				c-1.3,1.3-2.6,1.3-3.2,1.5c-4.3,0.4-10.9,0.4-10.9,0.4s-8.1,0-10.5-0.4c-0.6-0.2-2.1,0-3.4-1.5C5.5,29.2,5,27.1,5,27.1
				s-0.2-2.6-0.2-5.3v-2.6c0-2.6,0.2-5.3,0.2-5.3s0.2-2.4,1.3-3.2c1.3-1.3,2.6-1.3,3-1.5c4.3-0.4,10.9-0.4,10.9-0.4s6.4,0,10.9,0.4
				c0.6,0,1.9,0,3.2,1.5c0.9,1.1,1.3,3.2,1.3,3.2s0.2,2.6,0.2,5.3V21.7z"/>
		</g>
	</g>
</g>
<g id="tekst">
</g>
</svg>
