<?xml version="1.0" encoding="utf-8"?>
<svg version="1.1"  xmlns="http://www.w3.org/2000/svg" xmlns:xlink="http://www.w3.org/1999/xlink" x="0px" y="0px" width="40px" height="40px"
	 viewBox="0 0 40 40" enable-background="new 0 0 40 40" xml:space="preserve">
<g id="Lag_1_1_">
	<path d="M20.6,1L20.6,1C9.8,1,0,8.5,0,19.2v0.1c0,5.1,2.5,9.7,5.7,13.1l-1.9,6.8l6.9-3c2.9,1.7,6.3,2.8,9.9,2.8h0.1
		C31.4,39,40,30,40,19.3v-0.1C40,8.5,31.4,1,20.6,1z M20.6,7.3c1.9,0,3.3,1.5,3.3,3.4c0,1.8-1.5,3.4-3.3,3.4s-3.4-1.5-3.4-3.4
		S18.7,7.3,20.6,7.3z M25,30.6c-1.2,1.3-2.7,2-4.5,2c-0.8,0-1.6,0-2.4-0.1c-2-0.4-3.2-2.1-2.8-4.1c0.4-2.4,0.8-4.8,1.2-7.2
		c0.1-0.7,0.3-1.5,0.4-2.2c0-0.3,0-0.6,0-0.8c-0.1-0.5-0.3-0.7-0.8-0.8c-0.3,0-0.5,0-0.8-0.1s-0.7-0.2-0.9-0.4
		c-0.4-0.3-0.3-1,0.2-1.2c0.2-0.1,0.6,0.6,0.8,0.6c1.1,0,2.2,0.8,3.3,0.8H22c0.8,0,1.2-0.3,1.3,0.4c0.1,0.8-0.2,1.2-0.3,2
		c-0.4,2.3-0.8,4.3-1.2,6.6c-0.1,0.8-0.3,1.4-0.4,2.2c0,0.2,0,0.4,0,0.7c0.1,1,0.7,1.4,1.7,1.1c0.3-0.1,0.6-0.3,0.8-0.4
		c0.3-0.1,0.5-0.3,0.8-0.4c0.5-0.2,0.9,0.1,0.8,0.6C25.3,30.1,25.2,30.4,25,30.6z"/>
</g>
<g id="tekst">
</g>
</svg>
