<?xml version="1.0" encoding="utf-8"?>
<svg version="1.1"  xmlns="http://www.w3.org/2000/svg" xmlns:xlink="http://www.w3.org/1999/xlink" x="0px" y="0px" width="40px" height="40px"
	 viewBox="0 0 40 40" enable-background="new 0 0 40 40" xml:space="preserve">
<g id="Lag_1_1_">
	<g>
		<path d="M26.5,29c-3.1-1.1-5.3-3.2-5.3-3.2c-0.1-0.1-0.3-0.2-0.4-0.2l6-18.3l5.1,22.4c-0.1,0-0.6,0.1-1.2,0.1
			C29.7,29.7,28.2,29.6,26.5,29z M6,13.7c-1.9-2.6-2-4.8-2-4.8l0,0l22.8-1.6L11,18.2c-0.1-0.1-0.2-0.3-0.4-0.3
			C10.6,17.9,8,16.4,6,13.7z M39.3,27.8c0-0.1-0.1-0.1-0.1-0.2c-0.6-1-7.2-12.9-11.5-20.7c-0.2-0.3-0.4-0.5-0.7-0.5
			C3.7,1.2,3.6,1.2,3.5,1.2l0,0c-0.4,0-0.7,0.2-0.9,0.4c-2.7,3.6-1.3,6.7-0.8,7.6c0.1,0.8,0.5,3.1,2.4,5.7s4.2,4.2,5,4.7
			c0.4,0.7,1.5,2.4,3.5,4.1L2.9,37c-0.4,0.6-0.3,1.4,0.3,1.9C3.4,39,3.7,39.1,4,39.1c0.4,0,0.8-0.2,1.1-0.5L15,25.4
			c2.2,1.4,4.2,2,5,2.2c0.7,0.6,2.9,2.4,5.9,3.5c2,0.7,3.8,0.9,4.9,0.9c0.6,0,1.1,0,1.4-0.1c0.3,0.1,0.8,0.2,1.4,0.2
			c1.6,0,3.8-0.5,5.7-3.1C39.4,28.6,39.5,28.2,39.3,27.8z"/>
	</g>
</g>
<g id="tekst">
</g>
</svg>
