<?xml version="1.0" encoding="utf-8"?>
<svg version="1.1"  xmlns="http://www.w3.org/2000/svg" xmlns:xlink="http://www.w3.org/1999/xlink" x="0px" y="0px" width="40px" height="40px"
	 viewBox="0 0 40 40" enable-background="new 0 0 40 40" xml:space="preserve">
<g id="Lag_1">
	<g>
		<path fill-rule="evenodd" clip-rule="evenodd" fill="#000000" d="M32.8,18.1L21,6.5l-8.6,8.4l-3.2,3.2V28c1.3-0.9,3-2.5,4.8-2.5
			c1,0,3.2,0.7,4.3,1.3v-5.3h5.6v5.4c0.9-0.8,1.8-1.4,2.9-1.4c1.7,0,4.4,2,6.1,2.4L32.8,18.1L32.8,18.1z M32.8,1.2h-4.5v4.2l4.5,4.2
			V1.2z M1.3,28.1V31c2.1,0,4.3,2.7,6.4,2.7c2.1,0,4.2-2.7,6.3-2.7s4.3,2.7,6.4,2.7c2.1,0,4.2-2.7,6.4-2.7c2.1,0,4.3,2.7,6.4,2.7
			c2.1,0,4.2-2.7,6.3-2.7l0.1,0v-2.9l-0.1,0c-2.1,0-4.2,2.7-6.3,2.7c-2.1,0-4.2-2.7-6.4-2.7c-2.1,0-4.2,2.7-6.4,2.7
			c-2.1,0-4.3-2.7-6.4-2.7s-4.2,2.7-6.3,2.7C5.6,30.8,3.4,28.1,1.3,28.1z M1.3,33.7c2.1,0,4.3,2.7,6.4,2.7c2.1,0,4.2-2.7,6.3-2.7
			s4.3,2.7,6.4,2.7c2.1,0,4.2-2.7,6.4-2.7c2.1,0,4.3,2.7,6.4,2.7c2.1,0,4.2-2.7,6.3-2.7l0.1,0v2.9l-0.1,0c-2.1,0-4.2,2.7-6.3,2.7
			c-2.1,0-4.2-2.7-6.4-2.7c-2.1,0-4.2,2.7-6.4,2.7c-2.1,0-4.3-2.7-6.4-2.7s-4.2,2.7-6.3,2.7c-2.1,0-4.2-2.7-6.4-2.7L1.3,33.7
			L1.3,33.7z M22,1.2l14.6,14.4c0.4,0.4,0.6,1.1,0.3,1.6c-0.2,0.6-0.8,0.9-1.4,0.9h-0.6L21,4.3L7.1,18.1H6.4c-0.6,0-1.1-0.4-1.4-0.9
			c-0.2-0.6-0.1-1.2,0.3-1.6L19.9,1.2C20.5,0.6,21.4,0.6,22,1.2z"/>
	</g>
</g>
<g id="tekst">
	<polygon fill="none" stroke="#C1272D" stroke-width="10" stroke-miterlimit="10" points="-762,-635 158.1,-635 158.1,-42.5 
		-571,-42.5 -579.7,51.6 -762,51.6 	"/>
</g>
</svg>
