<?xml version="1.0" encoding="utf-8"?>
<svg version="1.1"  xmlns="http://www.w3.org/2000/svg" xmlns:xlink="http://www.w3.org/1999/xlink" x="0px" y="0px" width="40px" height="40px"
	 viewBox="0 0 40 40" enable-background="new 0 0 40 40" xml:space="preserve">
<g id="Lag_1">
	<g>
		<path fill="#FFFFFF" d="M30.3,6.2c-2-2.8-5-4.9-8.7-5.5C17.9,0.1,14.3,1,11.5,2.9c-2.8,2-4.9,5-5.5,8.7c-0.4,2.5-0.2,5,0.7,7.3
			c0.9,2.3,2.4,4.3,4.3,5.7c1.1,0.8,1.9,1.8,2.4,2.8c0.4,0.9,0.6,1.9,0.4,2.9c-0.4,2.2,0.2,4.3,1.3,6c1.2,1.7,3,2.9,5.2,3.3
			c2.2,0.4,4.3-0.2,6-1.3c1.7-1.2,2.9-3,3.3-5.2c0.2-0.9-0.4-1.7-1.3-1.9c-0.9-0.2-1.7,0.4-1.9,1.3c-0.2,1.3-0.9,2.4-1.9,3.1
			c-1,0.7-2.2,1-3.5,0.8c-1.3-0.2-2.4-1-3.1-1.9c-0.7-1-1-2.2-0.8-3.5c0.3-1.7,0-3.4-0.7-4.9c-0.7-1.5-1.9-2.9-3.5-4
			c-1.5-1.1-2.6-2.6-3.2-4.3c-0.7-1.7-0.9-3.6-0.5-5.5c0.5-2.8,2.1-5.1,4.2-6.6c2.1-1.5,4.9-2.2,7.6-1.7c2.8,0.5,5.1,2.1,6.6,4.2
			c1.5,2.1,2.2,4.9,1.7,7.6c-0.2,0.9,0.4,1.7,1.3,1.9c0.9,0.2,1.7-0.4,1.9-1.3C33.2,12.6,32.3,9.1,30.3,6.2z"/>
		<path fill="#FFFFFF" d="M26.6,25.9c-0.1,0-0.3,0-0.4-0.1c-3.7-2.9-3-6.1-2.4-9c0.2-0.9,0.4-1.7,0.4-2.5c0.1-1.4-0.4-2.6-1.2-3.6
			c-0.9-1-2.3-1.5-3.7-1.5c-2.7,0-5,2.3-5,5.1c0,1.1,0.3,2.2,1,3.1c0.2,0.3,0.1,0.7-0.1,0.9c-0.3,0.2-0.7,0.1-0.9-0.1
			C13.4,17,13,15.7,13,14.4c0-3.5,2.8-6.4,6.2-6.4c1.8,0,3.5,0.7,4.6,1.9c1.1,1.2,1.7,2.8,1.6,4.5c0,0.9-0.2,1.8-0.4,2.7
			c-0.6,2.7-1.1,5.3,2,7.7c0.3,0.2,0.3,0.6,0.1,0.9C26.9,25.8,26.7,25.9,26.6,25.9z"/>
		<circle fill="#FFFFFF" cx="21.8" cy="21.9" r="2"/>
	</g>
	<ellipse fill="#FFFFFF" cx="20.4" cy="21.6" rx="3.7" ry="2.2"/>
	
		<ellipse transform="matrix(-0.8641 -0.5034 0.5034 -0.8641 29.3139 57.2414)" fill="#FFFFFF" cx="22.4" cy="24.7" rx="1.7" ry="2.9"/>
	<path fill="#FFFFFF" d="M23.7,17c0-3.3-1.9-5.9-4.2-5.9s-4.2,2.6-4.2,5.9c0,0,0,0.4,0,0.7s-0.9-0.9-0.9-0.9l-0.7-3.7l1.3-3l2.6-1.3
		l2.1-0.1L22,9.5l1.9,1.3c0,0,0.5,1.1,0.5,1.1s0.2,2.5,0.2,2.5l-0.5,3.1L23.7,17z"/>
</g>
<g id="tekst">
</g>
</svg>
