<?xml version="1.0" encoding="utf-8"?>
<svg version="1.1"  xmlns="http://www.w3.org/2000/svg" xmlns:xlink="http://www.w3.org/1999/xlink" x="0px" y="0px" width="40px" height="40px"
	 viewBox="0 0 40 40" enable-background="new 0 0 40 40" xml:space="preserve">
<g id="Lag_1">
	<path fill="#FFFFFF" d="M9.6,12.4H7.8L9,3.7c0.2-1.5,1.6-2.6,3.1-2.3l0.1,0c0,0.1-0.1,0.3-0.1,0.4L9.6,12.4z M16.9,1.4
		C17,1,17.2,0.6,17.5,0.3l-0.7-0.2c-1.5-0.4-2.9,0.6-3.3,2L11,12.4h2L16.9,1.4z M19.2,5.1C21,5.7,23,4.8,23.6,3l3.9,1.4
		c-0.6,1.8,0.3,3.8,2.1,4.4l-1.3,3.6h2.2l1.9-5.6c0.5-1.4-0.3-3-1.7-3.5l-9.1-3.2c-1.4-0.5-3,0.3-3.5,1.7l-3.7,10.6h2.2L19.2,5.1z
		 M23.7,8.9c-2.2-0.8-4.4,0.1-5,1.9c-0.2,0.5-0.2,1.1-0.1,1.6h8C26.6,10.9,25.5,9.5,23.7,8.9z M20.2,26.9c0-3.4,2.8-6.2,6.2-6.2
		h10.3v-1.4c0-3-2.5-5.5-5.5-5.5H6.4c-3,0-5.5,2.5-5.5,5.5v15.2c0,3,2.5,5.5,5.5,5.5h24.8c3,0,5.5-2.5,5.5-5.5v-1.4H26.4
		C23,33.1,20.2,30.3,20.2,26.9z M39.5,26.9c0,2.7-0.7,4.8-2.8,4.8H26.4c-2.7,0-4.8-2.2-4.8-4.8s2.2-4.8,4.8-4.8h10.3
		C38.9,22,39.5,24.2,39.5,26.9z M28.5,26.9c0-1.1-0.9-2.1-2.1-2.1c-1.1,0-2.1,0.9-2.1,2.1c0,1.1,0.9,2.1,2.1,2.1
		C27.6,28.9,28.5,28,28.5,26.9z"/>
</g>
<g id="tekst">
</g>
</svg>
