<?xml version="1.0" encoding="utf-8"?>
<!-- Generator: Adobe Illustrator 18.0.0, SVG Export Plug-In . SVG Version: 6.00 Build 0)  -->
<!DOCTYPE svg PUBLIC "-//W3C//DTD SVG 1.1//EN" "http://www.w3.org/Graphics/SVG/1.1/DTD/svg11.dtd" [
	<!ENTITY ns_extend "http://ns.adobe.com/Extensibility/1.0/">
	<!ENTITY ns_ai "http://ns.adobe.com/AdobeIllustrator/10.0/">
	<!ENTITY ns_graphs "http://ns.adobe.com/Graphs/1.0/">
	<!ENTITY ns_vars "http://ns.adobe.com/Variables/1.0/">
	<!ENTITY ns_imrep "http://ns.adobe.com/ImageReplacement/1.0/">
	<!ENTITY ns_sfw "http://ns.adobe.com/SaveForWeb/1.0/">
	<!ENTITY ns_custom "http://ns.adobe.com/GenericCustomNamespace/1.0/">
	<!ENTITY ns_adobe_xpath "http://ns.adobe.com/XPath/1.0/">
]>
<svg version="1.1" xmlns:x="&ns_extend;" xmlns:i="&ns_ai;" xmlns:graph="&ns_graphs;"
	 xmlns="http://www.w3.org/2000/svg" xmlns:xlink="http://www.w3.org/1999/xlink" x="0px" y="0px" width="40px" height="40px"
	 viewBox="0 0 40 40" enable-background="new 0 0 40 40" xml:space="preserve">
<metadata>
	<sfw  xmlns="&ns_sfw;">
		<slices></slices>
		<sliceSourceBounds  width="900.5" height="864.2" y="-756.2" x="-31.1" bottomLeftOrigin="true"></sliceSourceBounds>
	</sfw>
</metadata>
<g id="Lag_1">
	<g>
		<g>
			<g>
				<path fill="#395F77" d="M16.1,16.5c0,2.5,2,4.5,4.5,4.5s4.5-2,4.5-4.5s-2-4.5-4.5-4.5S16.1,14,16.1,16.5z M11.7,34.4
					c0-2.5,0-6.3,0-7.4c0-1.6,0.2-2.3,1-3.2c0.7-0.9,1.7-1.4,2.8-1.4h0.6l2.4,4.8l1.3-1.9c-0.3-0.2-0.7-0.8-0.7-1.9
					c0-0.8,0.7-1,1.5-1s1.5,0.1,1.5,1c0,1.2-0.4,1.7-0.7,1.9l1.3,1.9l2.4-4.8h0.6c1.1,0,2.1,0.5,2.8,1.4c0.7,0.9,1,1.6,1,3.1
					c0,1,0,4.9,0,7.5L11.7,34.4z"/>
			</g>
		</g>
		<g>
			<g>
				<circle fill="#395F77" cx="9.2" cy="11.4" r="4.5"/>
				<path fill="#395F77" d="M9.9,27c0-2,0.4-2.9,1.4-4.2c1.1-1.3,2.6-1.9,4.2-1.9H16c-0.8-1-1.4-2.4-1.6-3.7c0,0-0.1-0.3-0.1-0.3
					h-0.6l-2.4,4.9L10,20.2c0.3-0.2,0.7-0.7,0.7-1.9c0-0.8-0.6-1-1.5-1s-1.5,0.2-1.5,1c0,1.2,0.4,1.7,0.7,1.9l-1.3,1.7L4.7,17H4
					c-1.1,0-2.1,0.7-2.8,1.6c-0.7,0.9-1,1.7-1,3.3c0,1,0,4.9,0,7.4l9.7,0C9.9,28.3,9.9,27.4,9.9,27z"/>
			</g>
		</g>
		<g>
			<g>
				<circle fill="#395F77" cx="30.7" cy="11.4" r="4.5"/>
				<path fill="#395F77" d="M25.2,21h0.6c0.9,0,1.7,0.1,2.4,0.5l-1.6-3.1C26.3,19.4,25.9,20,25.2,21z"/>
				<path fill="#395F77" d="M38.8,18.6c-0.7-0.9-1.9-1.6-3-1.6h-0.6l-2.4,4.9l-1.3-1.8c0.3-0.2,0.7-0.7,0.7-1.9c0-0.8-0.6-1-1.5-1
					c-0.8,0-1.5,0.2-1.5,1c0,1.2,0.4,1.7,0.7,1.9l-1,1.5c0.4,0.3,1.6,0.6,1.9,1c1,1.2,2.2,2.4,2.2,4.2V28h7c0-2,0-5.2,0-6.2
					C40,20.3,39.6,19.4,38.8,18.6z"/>
			</g>
		</g>
	</g>
</g>
<g id="tekst">
</g>
</svg>
