<?xml version="1.0" encoding="utf-8"?>
<svg version="1.1"  xmlns="http://www.w3.org/2000/svg" xmlns:xlink="http://www.w3.org/1999/xlink" x="0px" y="0px" width="40px" height="40px"
	 viewBox="0 0 40 40" enable-background="new 0 0 40 40" xml:space="preserve">
<g id="Lag_1">
	<g>
		<g>
			<path fill="#FFFFFF" d="M0.6,10.6h4.1c0.3,0,0.5-0.2,0.5-0.5V5.9c0-0.3-0.2-0.5-0.5-0.5H0.6c-0.3,0-0.5,0.2-0.5,0.5V10
				C0.1,10.3,0.3,10.6,0.6,10.6z M39.4,11.1h-4.1c-0.3,0-0.5,0.2-0.5,0.5v4.1c0,0.3,0.2,0.5,0.5,0.5h4.1c0.3,0,0.5-0.2,0.5-0.5v-4.1
				C39.9,11.4,39.7,11.1,39.4,11.1z M0.6,16.9c-0.3,0-0.5,0.2-0.5,0.5v4.1c0,0.3,0.2,0.5,0.5,0.5h4.1c0.3,0,0.5-0.2,0.5-0.5v-4.1
				c0-0.3-0.2-0.5-0.5-0.5H0.6z M39.4,22.7h-4.1c-0.3,0-0.5,0.2-0.5,0.5v4.1c0,0.3,0.2,0.5,0.5,0.5h4.1c0.3,0,0.5-0.2,0.5-0.5v-4.1
				C39.9,22.9,39.7,22.7,39.4,22.7z M4.7,28.5H0.6c-0.3,0-0.5,0.2-0.5,0.5v4.1c0,0.3,0.2,0.5,0.5,0.5h4.1c0.3,0,0.5-0.2,0.5-0.5V29
				C5.3,28.7,5,28.5,4.7,28.5z M39.4,28.5h-8.2c-0.6,0.5-1.3,0.7-2.2,0.8v3.7c0,0.3,0.3,0.5,0.6,0.5h9.9c0.3,0,0.5-0.2,0.5-0.5V29
				C39.9,28.7,39.7,28.5,39.4,28.5z M27.6,10.7H11.7c-2.3,0-4.3,1.9-4.3,4.3v9.2c0,2.3,1.9,4.3,4.3,4.3h15.9c2.3,0,4.3-1.9,4.3-4.3
				v-9.2C31.8,12.6,29.9,10.7,27.6,10.7z M15.7,25.8c-3.5,0-6.3-2.8-6.3-6.3s2.8-6.3,6.3-6.3s6.3,2.8,6.3,6.3S19.1,25.8,15.7,25.8z
				 M28.9,25.2h-4.7v-1h4.7V25.2z M28.9,22.6h-4.7v-1h4.7V22.6z M28.9,20.1h-4.7v-1h4.7V20.1z M28.9,17.5h-4.7v-1h4.7V17.5z
				 M28.9,14.8h-4.7v-1h4.7V14.8z M17.3,14.6c-0.2-0.1-0.4-0.1-0.6,0.1c-0.2,0.2-0.2,0.4-0.1,0.6c0.2,0.4-0.2,1.5-0.7,2.6
				c-0.4-1.1-1.1-2.1-2-2.4c-0.3-0.1-0.5-0.2-0.7-0.2c-1.9,0-2.5,2.5-2.6,4c0,0.2,0.1,0.4,0.3,0.5C11,20,11.1,20,11.2,20
				s0.3-0.1,0.4-0.1c0.1-0.1,0.4-0.2,1.3-0.2c0.6,0,1.2,0.1,1.8,0.2c-0.8,0.9-1.5,2.2-1.2,3.2c0.2,1.1,1,1.7,2.2,1.7
				c1.3,0,2.8-0.8,2.9-0.8c0.2-0.1,0.3-0.3,0.3-0.5S18.6,23,18.4,23c-0.5-0.2-1.2-1.5-1.7-2.8c0.1,0,0.2,0,0.3,0
				c1.5,0,2.6-0.5,3.2-1.2c0.5-0.7,0.5-1.3,0.4-1.8C19.9,15.6,17.6,14.7,17.3,14.6z M6.4,10.5h1.8c0.8-0.6,1.9-0.9,3-0.9h5.6V5.9
				c0-0.3-0.2-0.5-0.5-0.5H6.4c-0.3,0-0.6,0.2-0.6,0.5V10C5.8,10.3,6.1,10.5,6.4,10.5z M28.3,9.6V5.9c0-0.3-0.2-0.5-0.5-0.5H18
				c-0.3,0-0.6,0.2-0.6,0.5v3.7h10.8C28.2,9.6,28.3,9.6,28.3,9.6z M39.4,10.5c0.3,0,0.5-0.2,0.5-0.5V5.9c0-0.3-0.2-0.5-0.5-0.5h-9.9
				c-0.3,0-0.6,0.2-0.6,0.5v3.7c0.8,0.1,1.5,0.4,2.2,0.9H39.4z M0.6,16.4h5.5v-1.8c0-1.3,0.6-2.6,1.4-3.5H0.6
				c-0.3,0-0.6,0.3-0.6,0.6v4.1C0.1,16.1,0.3,16.4,0.6,16.4z M33.6,11.1h-1.8c0.9,0.9,1.4,2.1,1.4,3.5v0v0v1.8h0.5
				c0.3,0,0.6-0.3,0.6-0.6v-4.1C34.2,11.4,33.9,11.1,33.6,11.1z M39.9,21.6v-4.1c0-0.3-0.2-0.5-0.5-0.5h-6.2v5.1h6.2
				C39.7,22.1,39.9,21.9,39.9,21.6z M34.2,27.3v-4.1c0-0.3-0.3-0.6-0.6-0.6h-0.5v1.8c0,1.3-0.5,2.6-1.3,3.5h1.8
				C33.9,27.9,34.2,27.6,34.2,27.3z M17.4,29.4v3.7c0,0.3,0.3,0.5,0.6,0.5h9.9c0.3,0,0.5-0.2,0.5-0.5v-3.7c0,0-0.1,0-0.1,0H17.4z
				 M8.2,28.5H6.4c-0.3,0-0.6,0.2-0.6,0.5v4.1c0,0.3,0.3,0.5,0.6,0.5h9.9c0.3,0,0.5-0.2,0.5-0.5v-3.7h-5.6C10,29.4,9,29.1,8.2,28.5z
				 M0.6,27.9h6.9c-0.9-0.9-1.4-2.2-1.4-3.5v-1.8H0.6c-0.3,0-0.6,0.3-0.6,0.6v4.1C0.1,27.6,0.3,27.9,0.6,27.9z M5.8,21.6
				c0,0.2,0.2,0.4,0.3,0.5v-5c-0.2,0.1-0.3,0.3-0.3,0.5V21.6z"/>
		</g>
	</g>
</g>
<g id="tekst">
</g>
</svg>
