<?xml version="1.0" encoding="utf-8"?>
<svg version="1.1"  xmlns="http://www.w3.org/2000/svg" xmlns:xlink="http://www.w3.org/1999/xlink" x="0px" y="0px" width="40px" height="40px"
	 viewBox="0 0 40 40" enable-background="new 0 0 40 40" xml:space="preserve">
<g id="Lag_1">
	<g>
		<polygon fill="#FFFFFF" points="40,11.1 33.1,12.3 34.4,13.6 30.8,16.2 37.7,15 36.4,13.7 		"/>
		<polygon fill="#FFFFFF" points="20.9,2.9 16.9,8 18.7,8 18,13.1 22,7.6 20.1,7.4 		"/>
		<polygon fill="#FFFFFF" points="6.9,12.3 0,11.1 3.6,13.7 2.3,15 9.3,16.2 5.6,13.6 		"/>
	</g>
	<g>
		<g>
			<path fill="#FFFFFF" d="M35.3,30.3h-5c-1.8,0-3.3-1.5-3.3-3.3c0-0.3,0.2-0.5,0.5-0.5c0.3,0,0.5,0.4,0.5,0.7c0,1.2,1,2.4,2.2,2.4
				h4.5c0,0-0.1-0.1-0.1-0.1c0.3-0.6,0.4-1.3,0.4-2c0-1.6-0.7-3-1.9-4l-2.7,1.8c-0.1,0.1-0.2,0.1-0.3,0.1c-0.2,0-0.3-0.1-0.4-0.2
				c-0.2-0.2-0.1-0.6,0.1-0.7l2.6-1.7c-0.5-2.3-2.6-4-5-4c-0.2,0-0.4,0-0.6,0c-0.6-1.2-1.9-2.1-3.4-2.1c-2,0-3.7,1.6-3.7,3.5v3.7
				c0,0,0,0,0.1,0h3.3c0.3,0,0.5,0.1,0.5,0.4c0,0.3-0.2,0.4-0.5,0.4h-3.3c0,0,0,0-0.1,0v3.2h0.6c1.8,0,3.3,1.5,3.3,3.2
				c0,0.3-0.2,0.5-0.5,0.5s-0.5-0.2-0.5-0.5c0-1.2-1-2.2-2.2-2.2c0,0,0,0,0,0H20v0.6c0,0.4-0.4,0.8-0.7,0.8s-0.7-0.3-0.7-0.8v-0.1
				h-3.2c-0.3,0-0.5-0.3-0.5-0.6S15,28,15.3,28h3.2v-3.5h-0.4c-1.8,0-3.3-1.5-3.3-3.2c0-0.3,0.2-0.5,0.5-0.5c0.3,0,0.5,0.2,0.5,0.5
				c0,1.2,1,2.2,2.2,2.2h0.4v-3.3c0-2-1.4-3.5-3.3-3.5c-1.4,0-2.6,0.8-3.1,2.1c-0.2,0-0.4,0-0.6,0c-2.4,0-4.4,1.6-5,3.9l2.6,1.7
				c0.2,0.2,0.3,0.5,0.1,0.7C9.2,25,9,25.1,8.9,25.1c-0.1,0-0.2,0-0.3-0.1L6,23.3c-1.2,1-2,2.5-2,4.1c0,0.6,0.1,1.2,0.3,1.8
				c0,0,0,0,0,0h4.5c1.2,0,2.2-1.2,2.2-2.4c0-0.3,0.2-0.6,0.5-0.6c0.3,0,0.5,0.3,0.5,0.6c0,1.8-1.5,3.3-3.3,3.3H3.5
				c-0.3,0.5-0.4,1.1-0.4,1.7c0,1.9,1.5,3.5,3.3,3.5h4.4v-0.9c0-2.2,1.6-3.9,3.8-3.9c0.3,0,0.4,0.2,0.4,0.5c0,0.3-0.3,0.5-0.6,0.5
				c-1.6,0-3,1.3-3,2.9c0,0,0,0.5,0,0.9h16.2v-0.7c0-1.6-1.3-2.9-2.9-2.9c-0.3,0-0.5-0.2-0.5-0.5s0.2-0.5,0.5-0.5
				c2.2,0,3.9,1.8,3.9,3.9v0.7h3.8c1.8,0,3.3-1.7,3.3-3.5C35.7,31.4,35.6,30.8,35.3,30.3z"/>
		</g>
	</g>
</g>
<g id="tekst">
</g>
</svg>
