<?xml version="1.0" encoding="utf-8"?>
<svg version="1.1"  xmlns="http://www.w3.org/2000/svg" xmlns:xlink="http://www.w3.org/1999/xlink" x="0px" y="0px" width="40px" height="40px"
	 viewBox="0 0 40 40" enable-background="new 0 0 40 40" xml:space="preserve">
<g id="Lag_1">
	<g>
		<g>
			<path fill="#FFFFFF" d="M33.2,32H10.8H5.1H3.2C3.1,32,3,32.3,3,32.6s0.1,0.6,0.2,0.6h30c0.1,0,0.2-0.3,0.2-0.6S33.3,32,33.2,32z
				 M39.5,10.8l-2.6-5.3c-0.1-0.2-0.5-0.4-0.8-0.2L10.8,17.6v-1v0v-0.1c0-0.2-0.2-0.5-0.5-0.5H5.6c-0.2,0-0.5,0.2-0.5,0.5v4.1
				l-3.7,1.9c-0.2,0.1-0.4,0.5-0.2,0.7l2.6,5.3c0.1,0.2,0.5,0.4,0.7,0.2l0.6-0.2v2.8h5.8v-4.5v0v-1.1v0l28.4-13.9
				C39.6,11.6,39.7,11.2,39.5,10.8z M4.7,28l-0.9-6l2.8-1.4l0.9,5.9L4.7,28z M10.5,25.2l-0.9-5.9l2.8-1.5l0.9,5.9L10.5,25.2z
				 M16.2,22.3l-0.9-5.9l2.8-1.5l0.9,6L16.2,22.3z M21.8,19.5L21,13.6l2.8-1.4l0.9,5.9L21.8,19.5z M27.6,16.8l-0.9-6l2.8-1.4
				l0.9,5.9L27.6,16.8z M33.3,13.8l-0.9-5.9L35,6.6h0.1h0.1l0.9,5.8L33.3,13.8z"/>
		</g>
	</g>
</g>
<g id="tekst">
</g>
</svg>
