<?xml version="1.0" encoding="utf-8"?>
<svg version="1.1"  xmlns="http://www.w3.org/2000/svg" xmlns:xlink="http://www.w3.org/1999/xlink" x="0px" y="0px" width="40px" height="40px"
	 viewBox="0 0 40 40" enable-background="new 0 0 40 40" xml:space="preserve">
<g id="Lag_1">
	<path fill="#000000" d="M34.5,5.5L16.6,0.2C16,0.1,15.4,0.4,15.2,1L5.8,33c-0.2,0.6,0.2,1.2,0.8,1.4l17.9,5.2
		c0.6,0.2,1.3-0.1,1.5-0.7l9.4-32C35.5,6.3,35.1,5.7,34.5,5.5z M22.3,3.9c0.1-0.2,0.2-0.3,0.4-0.3l5,1.5c0.1,0,0.2,0.2,0.1,0.5
		l0,0.1c-0.1,0.2-0.2,0.3-0.4,0.3l-5-1.5c-0.1,0-0.2-0.2-0.1-0.5L22.3,3.9z M15.9,35.9c-1-0.3-1.6-1.3-1.3-2.2
		c0.3-0.9,1.3-1.5,2.3-1.2c1,0.3,1.6,1.3,1.3,2.2C17.9,35.7,16.9,36.2,15.9,35.9z M25.3,33.2L9.4,28.6l7.1-24.3l15.9,4.7L25.3,33.2z
		"/>
</g>
<g id="tekst">
</g>
</svg>
