<?xml version="1.0" encoding="utf-8"?>
<svg version="1.1"  xmlns="http://www.w3.org/2000/svg" xmlns:xlink="http://www.w3.org/1999/xlink" x="0px" y="0px" width="40px" height="40px"
	 viewBox="0 0 40 40" enable-background="new 0 0 40 40" xml:space="preserve">
<g id="Lag_1">
	<g>
		<path fill="#000000" d="M22.9,33.2l0.7-1.2h-7.6l0.7,1.2l-0.7,1.2l0.7,1.2l-0.7,1.2l1.4,1.5h0.1c0.3,0.8,1.2,1.5,2.4,1.5
			c1.2,0,2.1-0.6,2.4-1.5h0.1l1.4-1.5L23,35.6l0.7-1.2L22.9,33.2z"/>
	</g>
	<g>
		<path fill="#000000" d="M17.9,17c-1.1,1.2-2.6,1.5-3.4,0.8c-0.8-0.7-0.4-2.2,0.7-3.4c1.1-1.2,2.6-1.5,3.4-0.8
			C19.4,14.3,19.1,15.8,17.9,17z M19.8,11.5c-4.4,0-8,3.5-8,8c0,3.7,4.2,6.1,4.2,10.7h7.6c0-4.4,4.2-7,4.2-10.7
			C27.8,15.1,24.3,11.5,19.8,11.5z"/>
	</g>
	<g>
		<path fill="#000000" d="M39,18.4l-5.8-2.8c-0.5-0.2-0.7-0.8-0.6-1.2l2.4-7.1c0.1-0.3,0.1-0.7-0.2-1c-0.2-0.3-0.6-0.4-1-0.3
			l-7.7,1.4c-0.4,0.1-0.8-0.1-1-0.5l-3.7-5.9c-0.2-0.3-0.5-0.4-0.8-0.5c-0.3-0.1-0.6,0.1-0.8,0.3l-4.9,5.9c-0.3,0.3-0.7,0.4-1,0.3
			L5.7,4.7c-0.3-0.1-0.8,0-1,0.3C4.4,5.2,4.3,5.6,4.4,6l2.9,8.7c0.1,0.5-0.1,1-0.5,1.2L1,19.2c-0.3,0.2-0.6,0.6-0.5,0.9
			c0,0.3,0.2,0.7,0.6,0.9l5.6,2.8c0.1,0.1,0.3,0,0.5-0.1c0.1-0.1,0.1-0.3-0.1-0.5l-3-2.5c-0.1-0.1-0.2-0.3-0.2-0.4s0.1-0.3,0.3-0.4
			l5.1-3c0.4-0.3,0.6-0.8,0.5-1.2L7.4,8.4c-0.1-0.2,0-0.3,0.1-0.5C7.7,7.8,7.9,7.7,8,7.8l6.9,2c0.4,0.1,0.8,0,1-0.3L20,4.5
			c0.1-0.1,0.3-0.2,0.4-0.2s0.3,0.1,0.4,0.2L24,9.4c0.2,0.3,0.6,0.6,1,0.5l6.4-1.2c0.2,0,0.3,0,0.5,0.1s0.1,0.3,0.1,0.5l-2.1,6
			c-0.1,0.5,0.1,1,0.5,1.2l5.2,2.6c0.1,0.1,0.2,0.2,0.3,0.3c0,0.1,0,0.3-0.1,0.4l-2.7,3.3c-0.1,0.1-0.1,0.3,0,0.5
			c0.1,0.1,0.3,0.1,0.4,0.1l5.4-3.7c0.3-0.2,0.5-0.6,0.4-0.9C39.6,18.9,39.4,18.5,39,18.4z"/>
	</g>
</g>
<g id="tekst">
</g>
</svg>
