<?xml version="1.0" encoding="utf-8"?>
<svg version="1.1"  xmlns="http://www.w3.org/2000/svg" xmlns:xlink="http://www.w3.org/1999/xlink" x="0px" y="0px" width="40px" height="40px"
	 viewBox="0 0 40 40" enable-background="new 0 0 40 40" xml:space="preserve">
<g id="Lag_1">
	<path fill="#FFFFFF" d="M19.4,9.5c1.8,0,3.4-1.6,3.4-3.4s-1.6-3.4-3.4-3.4S16,4.2,16,6.1C16,7.9,17.6,9.5,19.4,9.5z M24,34.2
		c-0.1,0-0.4-0.1-0.6-0.3L21,31.7l-2.8,4.4H40l-7.8-12.2l0,0L32,23.8c-1.1-1.6-3.4-2-5.1-1c-0.4,0.3-0.9,0.7-1.1,1.1l-3.1,4.8
		l-6-5.4V11.5l0,0c0-0.6-0.3-1.3-0.7-1.7c-0.6-0.6-1.1-0.9-1.8-0.9l0,0H4.7c-1,0-1.7,0.7-1.7,1.7v2.6c0,1,0.7,1.7,1.7,1.7
		c0.1,0,0.1,0,0.3,0l1,0.9l0,0l3.8,3.4l0,0l3.7,3.4v1.1c0,1,0.7,1.7,1.7,1.7c0.4,0,0.7-0.1,1-0.3l8.2,7.5c0.3,0.3,0.4,0.9,0,1.1
		C24.4,34,24.1,34.2,24,34.2z M7.4,14.6l-0.9-0.9c0-0.1,0.1-0.4,0.1-0.6v-0.9h3.3L7.4,14.6z M13.6,20.3L11.2,18l2.4-2.3V20.3z
		 M13.5,25.6L13.5,25.6L13.5,25.6c-0.1-0.6-0.4-1.1-0.7-1.6L6.1,18c-0.3-0.3-0.7-0.6-1.1-0.6s-0.9,0.1-1.1,0.4L3.7,18
		c-0.3,0.3-0.4,0.7-0.4,1.1v7.7l-0.9,2l-1.7,4.1c-0.4,0.9,0,1.8,0.9,2.3c0.3,0.1,0.4,0.1,0.7,0.1c0.7,0,1.3-0.4,1.6-1l2.7-6.4l0,0
		l0,0l0,0c0.1-0.3,0.1-0.6,0.1-0.9v-4l3.5,3.3l0.3,2.1l0.9,5.4c0.1,0.9,0.9,1.4,1.7,1.4c0.1,0,0.1,0,0.3,0c1-0.1,1.6-1,1.4-2
		L13.5,25.6z"/>
</g>
<g id="tekst">
</g>
</svg>
