<?xml version="1.0" encoding="utf-8"?>
<svg version="1.1"  xmlns="http://www.w3.org/2000/svg" xmlns:xlink="http://www.w3.org/1999/xlink" x="0px" y="0px" width="40px" height="40px"
	 viewBox="0 0 40 40" enable-background="new 0 0 40 40" xml:space="preserve">
<g id="Lag_1">
	<circle fill="#FFFFFF" cx="24.1" cy="7.5" r="7.1"/>
	<circle fill="#FFFFFF" cx="9.1" cy="24.7" r="3.8"/>
	<path fill="#FFFFFF" d="M31.9,15.3c-2,2.1-4.8,3.4-7.9,3.4c-3.1,0-5.9-1.3-7.9-3.4c-2.2,0.1-4.2,1.1-5.5,2.7
		c3.1,0.7,5.5,3.5,5.5,6.8c0,0.5-0.2,1-0.3,1.5C18.3,27.4,20,30,20,33v3h19V23C39,18.9,35.9,15.5,31.9,15.3z"/>
	<path fill="#FFFFFF" d="M13.2,28.8c-1.1,1.1-2.5,1.8-4.2,1.8c-1.7,0-3.1-0.7-4.1-1.8C2.7,28.9,1,30.7,1,33v6h16v-6
		C17,30.8,15.4,29,13.2,28.8z"/>
</g>
<g id="tekst">
</g>
</svg>
