<?xml version="1.0" encoding="utf-8"?>
<svg version="1.1"  xmlns="http://www.w3.org/2000/svg" xmlns:xlink="http://www.w3.org/1999/xlink" x="0px" y="0px" width="40px" height="40px"
	 viewBox="0 0 40 40" enable-background="new 0 0 40 40" xml:space="preserve">
<g id="Lag_1">
	<g>
		<path fill="#FFFFFF" d="M21.9,14.4c0,0.5,0.1,0.9,0.4,1.2c0.3,0.3,0.6,0.5,1.1,0.5c0.5,0,0.8-0.2,1.1-0.5s0.4-0.7,0.4-1.2v-0.8
			c0-0.5-0.1-0.9-0.4-1.2c-0.3-0.3-0.6-0.5-1.1-0.5c-0.5,0-0.9,0.2-1.1,0.5c-0.3,0.3-0.4,0.7-0.4,1.2L21.9,14.4L21.9,14.4z
			 M20.5,13.6c0-0.8,0.3-1.5,0.8-2.1c0.5-0.6,1.2-0.8,2.1-0.8c0.9,0,1.6,0.3,2.1,0.8c0.5,0.6,0.8,1.2,0.8,2.1v0.8
			c0,0.8-0.3,1.5-0.8,2.1c-0.5,0.6-1.2,0.8-2.1,0.8c-0.9,0-1.6-0.3-2.1-0.8c-0.5-0.6-0.8-1.2-0.8-2.1L20.5,13.6L20.5,13.6z
			 M15.4,16.9L15.4,16.9c-0.3-0.2-0.4-0.6-0.2-0.9l9-12.9C24.4,2.9,24.8,2.8,25,3c0.3,0.2,0.4,0.6,0.2,0.9l-9,12.9
			C16,17,15.6,17.1,15.4,16.9z M15.1,6.4c0,0.5,0.1,0.9,0.4,1.2c0.3,0.3,0.6,0.5,1.1,0.5c0.5,0,0.8-0.2,1.1-0.5
			c0.3-0.3,0.4-0.7,0.4-1.2V5.6c0-0.5-0.1-0.9-0.4-1.2c-0.3-0.3-0.6-0.5-1.1-0.5c-0.5,0-0.9,0.2-1.1,0.5c-0.3,0.3-0.4,0.7-0.4,1.2
			L15.1,6.4L15.1,6.4z M13.6,5.6c0-0.8,0.3-1.5,0.8-2.1C15,3,15.7,2.7,16.6,2.7c0.9,0,1.6,0.3,2.1,0.8c0.5,0.6,0.8,1.3,0.8,2.1v0.7
			c0,0.8-0.3,1.5-0.8,2.1c-0.5,0.6-1.2,0.8-2.1,0.8c-0.9,0-1.6-0.3-2.1-0.8s-0.8-1.2-0.8-2.1L13.6,5.6L13.6,5.6z"/>
	</g>
	<g>
		<path fill="#FFFFFF" d="M37.8,29c-1.2,0.7-2.8,1.1-4.5,1.1c-0.1,0-0.2,0-0.3,0c-0.1,0-0.2,0-0.3,0c-1.7,0-3.3-0.4-4.5-1.1
			c-0.6-0.3-1.1-0.7-1.5-1.2v2.4c0.4,0.4,0.9,0.8,1.5,1.2c1.2,0.7,2.8,1.1,4.5,1.1c0.1,0,0.2,0,0.3,0c0.1,0,0.2,0,0.3,0
			c1.7,0,3.3-0.4,4.5-1.1c0.6-0.3,1.1-0.7,1.5-1.2v-2.4C38.9,28.3,38.4,28.7,37.8,29z"/>
	</g>
	<g>
		<path fill="#FFFFFF" d="M37.8,31.9c-1.2,0.7-2.8,1.1-4.5,1.1c-0.1,0-0.2,0-0.3,0c-0.1,0-0.2,0-0.3,0c-1.7,0-3.3-0.4-4.5-1.1
			c-0.6-0.3-1.1-0.7-1.5-1.2v2.4c0.4,0.4,0.9,0.8,1.5,1.2c1.2,0.7,2.8,1.1,4.5,1.1c0.1,0,0.2,0,0.3,0c0.1,0,0.2,0,0.3,0
			c1.7,0,3.3-0.4,4.5-1.1c0.6-0.3,1.1-0.7,1.5-1.2v-2.4C38.9,31.2,38.4,31.6,37.8,31.9z"/>
	</g>
	<g>
		<path fill="#FFFFFF" d="M37.8,34.9c-1.2,0.7-2.8,1.1-4.5,1.1c-0.1,0-0.2,0-0.3,0c-0.1,0-0.2,0-0.3,0c-1.7,0-3.3-0.4-4.5-1.1
			c-0.6-0.3-1.1-0.7-1.5-1.2v2.4c0.4,0.4,0.9,0.8,1.5,1.2c1.2,0.7,2.8,1.1,4.5,1.1c0.1,0,0.2,0,0.3,0c0.1,0,0.2,0,0.3,0
			c1.7,0,3.3-0.4,4.5-1.1c0.6-0.3,1.1-0.7,1.5-1.2v-2.4C38.9,34.1,38.4,34.5,37.8,34.9z"/>
	</g>
	<g>
		<path fill="#FFFFFF" d="M33,22.5c-3.5,0-6.2,1.6-6.2,3.5s2.8,3.5,6.2,3.5c3.5,0,6.2-1.6,6.2-3.5S36.5,22.5,33,22.5z"/>
	</g>
	<g>
		<path fill="#FFFFFF" d="M24.8,29c-1.2,0.7-2.8,1.1-4.5,1.1c-0.1,0-0.2,0-0.3,0c-0.1,0-0.2,0-0.3,0c-1.7,0-3.3-0.4-4.5-1.1
			c-0.6-0.3-1.1-0.7-1.5-1.2v2.4c0.4,0.4,0.9,0.8,1.5,1.2c1.2,0.7,2.8,1.1,4.5,1.1c0.1,0,0.2,0,0.3,0s0.2,0,0.3,0
			c1.7,0,3.3-0.4,4.5-1.1c0.6-0.3,1.1-0.7,1.5-1.2v-2.4C25.9,28.3,25.4,28.7,24.8,29z"/>
	</g>
	<g>
		<path fill="#FFFFFF" d="M24.8,31.9C23.6,32.6,22,33,20.3,33c-0.1,0-0.2,0-0.3,0c-0.1,0-0.2,0-0.3,0c-1.7,0-3.3-0.4-4.5-1.1
			c-0.6-0.3-1.1-0.7-1.5-1.2v2.4c0.4,0.4,0.9,0.8,1.5,1.2c1.2,0.7,2.8,1.1,4.5,1.1c0.1,0,0.2,0,0.3,0s0.2,0,0.3,0
			c1.7,0,3.3-0.4,4.5-1.1c0.6-0.3,1.1-0.7,1.5-1.2v-2.4C25.9,31.2,25.4,31.6,24.8,31.9z"/>
	</g>
	<g>
		<path fill="#FFFFFF" d="M24.8,34.9c-1.2,0.7-2.8,1.1-4.5,1.1c-0.1,0-0.2,0-0.3,0c-0.1,0-0.2,0-0.3,0c-1.7,0-3.3-0.4-4.5-1.1
			c-0.6-0.3-1.1-0.7-1.5-1.2v2.4c0.4,0.4,0.9,0.8,1.5,1.2c1.2,0.7,2.8,1.1,4.5,1.1c0.1,0,0.2,0,0.3,0s0.2,0,0.3,0
			c1.7,0,3.3-0.4,4.5-1.1c0.6-0.3,1.1-0.7,1.5-1.2v-2.4C25.9,34.1,25.4,34.5,24.8,34.9z"/>
	</g>
	<g>
		<path fill="#FFFFFF" d="M24.8,26.1c-1.2,0.7-2.8,1.1-4.5,1.1c-0.1,0-0.2,0-0.3,0c-0.1,0-0.2,0-0.3,0c-1.7,0-3.3-0.4-4.5-1.1
			c-0.6-0.3-1.1-0.7-1.5-1.2v2.4c0.4,0.4,0.9,0.8,1.5,1.2c1.2,0.7,2.8,1.1,4.5,1.1c0.1,0,0.2,0,0.3,0s0.2,0,0.3,0
			c1.7,0,3.3-0.4,4.5-1.1c0.6-0.3,1.1-0.7,1.5-1.2v-2.4C25.9,25.3,25.4,25.7,24.8,26.1z"/>
	</g>
	<g>
		<path fill="#FFFFFF" d="M24.8,29c-1.2,0.7-2.8,1.1-4.5,1.1c-0.1,0-0.2,0-0.3,0c-0.1,0-0.2,0-0.3,0c-1.7,0-3.3-0.4-4.5-1.1
			c-0.6-0.3-1.1-0.7-1.5-1.2v2.4c0.4,0.4,0.9,0.8,1.5,1.2c1.2,0.7,2.8,1.1,4.5,1.1c0.1,0,0.2,0,0.3,0s0.2,0,0.3,0
			c1.7,0,3.3-0.4,4.5-1.1c0.6-0.3,1.1-0.7,1.5-1.2v-2.4C25.9,28.3,25.4,28.7,24.8,29z"/>
	</g>
	<g>
		<path fill="#FFFFFF" d="M20,19.6c-3.5,0-6.2,1.6-6.2,3.5s2.8,3.5,6.2,3.5s6.2-1.6,6.2-3.5S23.4,19.6,20,19.6L20,19.6z"/>
	</g>
	<g>
		<path fill="#FFFFFF" d="M11.7,31.9C10.5,32.6,8.9,33,7.2,33c-0.1,0-0.2,0-0.3,0s-0.2,0-0.3,0c-1.7,0-3.3-0.4-4.5-1.1
			c-0.6-0.3-1.1-0.7-1.5-1.2v2.4c0.4,0.4,0.9,0.8,1.5,1.2c1.2,0.7,2.8,1.1,4.5,1.1c0.1,0,0.2,0,0.3,0s0.2,0,0.3,0
			c1.7,0,3.3-0.4,4.5-1.1c0.6-0.3,1.1-0.7,1.5-1.2v-2.4C12.8,31.2,12.3,31.6,11.7,31.9z"/>
	</g>
	<g>
		<path fill="#FFFFFF" d="M11.7,34.9c-1.2,0.7-2.8,1.1-4.5,1.1c-0.1,0-0.2,0-0.3,0s-0.2,0-0.3,0c-1.7,0-3.3-0.4-4.5-1.1
			c-0.6-0.3-1.1-0.7-1.5-1.2v2.4c0.4,0.4,0.9,0.8,1.5,1.2c1.2,0.7,2.8,1.1,4.5,1.1c0.1,0,0.2,0,0.3,0s0.2,0,0.3,0
			c1.7,0,3.3-0.4,4.5-1.1c0.6-0.3,1.1-0.7,1.5-1.2v-2.4C12.8,34.1,12.3,34.5,11.7,34.9z"/>
	</g>
	<g>
		<path fill="#FFFFFF" d="M6.9,25.5c-3.5,0-6.2,1.6-6.2,3.5s2.8,3.5,6.2,3.5s6.2-1.6,6.2-3.5S10.4,25.5,6.9,25.5z"/>
	</g>
</g>
<g id="tekst">
</g>
</svg>
