<?xml version="1.0" encoding="utf-8"?>
<svg version="1.1"  xmlns="http://www.w3.org/2000/svg" xmlns:xlink="http://www.w3.org/1999/xlink" x="0px" y="0px" width="40px" height="40px"
	 viewBox="0 0 40 40" enable-background="new 0 0 40 40" xml:space="preserve">
<g id="Lag_1_1_">
	<g>
		<polygon fill="#FFFFFF" points="16.8,8.5 7,19.9 7,25.4 13.1,24.3 		"/>
		<polygon fill="#FFFFFF" points="24.4,6 26.3,2.4 25.5,0.8 21.8,0.7 17.8,0.9 17.1,2.4 18.9,6 		"/>
		<path fill="#FFFFFF" d="M24.3,7H19l-5.5,25.7l8.3,7.4l8.1-7.7L24.3,7z M19.9,13.1l3.2-2l0.3,1.3l-3.8,2.3L19.9,13.1z M18.5,20.2
			l5.8-3.5l0.3,1.3l-6.4,3.9L18.5,20.2z M16.9,27.8l8.5-5.2l0.3,1.3l-9.1,5.5L16.9,27.8z M18.7,34.6l-0.9-0.9l8.9-5.4l0.3,1.3
			L18.7,34.6z"/>
	</g>
</g>
</svg>
