<?xml version="1.0" encoding="utf-8"?>
<svg version="1.1"  xmlns="http://www.w3.org/2000/svg" xmlns:xlink="http://www.w3.org/1999/xlink" x="0px" y="0px" width="40px" height="40px"
	 viewBox="0 0 40 40" enable-background="new 0 0 40 40" xml:space="preserve">
<g id="Lag_1_1_">
	<g>
		<g>
			<g>
				<path d="M16.8,16.9c0,2.4,2,4.4,4.4,4.4s4.4-2,4.4-4.4s-2-4.4-4.4-4.4S16.8,14.5,16.8,16.9z M12.4,34.5c0-2.5,0-6.2,0-7.3
					c0-1.6,0.2-2.3,0.9-3.1c0.7-0.9,1.7-1.3,2.8-1.3h0.6l2.4,4.7l1.3-1.8c-0.3-0.2-0.7-0.7-0.7-1.9c0-0.8,0.7-1,1.5-1s1.4,0.1,1.4,1
					c0,1.1-0.4,1.7-0.7,1.9l1.3,1.8l2.4-4.7h0.6c1.1,0,2.1,0.5,2.8,1.3c0.7,0.9,1,1.6,1,3c0,1,0,4.8,0,7.4H12.4z"/>
			</g>
		</g>
		<g>
			<g>
				<circle cx="9.9" cy="11.9" r="4.4"/>
				<path d="M10.7,27.2c0-1.9,0.3-2.5,1.3-3.7c1-1.3,2.5-1.5,4.1-1.5h0.5c-0.8-1-1.4-2.4-1.5-3.6L15,18h-0.6L12,22.6l-1.3-1.9
					c0.3-0.2,0.7-0.8,0.7-1.9c0-0.8-0.6-1-1.4-1c-0.8,0-1.5,0.1-1.5,1c0,1.1,0.4,1.7,0.7,1.9l-1.3,2L5.5,18H4.9
					c-1.1,0-2.1,0.4-2.8,1.2c-0.7,0.9-0.9,1.5-0.9,3.1c0,1,0,4.7,0,7.2h9.5C10.7,28.5,10.7,27.6,10.7,27.2z"/>
			</g>
		</g>
		<g>
			<g>
				<circle cx="31.1" cy="11.9" r="4.4"/>
				<path d="M25.7,22h0.5c0.8,0,1.7-0.3,2.4,0.1L27,19.3C26.8,20.2,26.3,21,25.7,22z"/>
				<path d="M38.5,19.2c-0.7-0.9-1.3-1.2-2.3-1.2h-0.6l-2.4,4.6l-1.3-1.9c0.3-0.2,0.7-0.8,0.7-1.9c0-0.8-0.6-1-1.4-1
					c-0.8,0-1.5,0.1-1.5,1c0,1.1,0.4,1.7,0.7,1.9l-1,1.4c0.4,0.3,1.4,0.6,1.7,1c1,1.2,2,2.3,2,4.1V30h6c0-2,0-6.9,0-7.9
					C39,20.7,39.2,20.1,38.5,19.2z"/>
			</g>
		</g>
	</g>
</g>
</svg>
