<?xml version="1.0" encoding="utf-8"?>
<svg version="1.1"  xmlns="http://www.w3.org/2000/svg" xmlns:xlink="http://www.w3.org/1999/xlink" x="0px" y="0px" width="40px" height="40px"
	 viewBox="0 0 40 40" enable-background="new 0 0 40 40" xml:space="preserve">
<g id="Lag_1">
	<g>
		<g>
			<path fill="#000000" d="M9.1,0.5v39.1h0.8V2.1h19.9v37.5h1.6V0.5H9.1z M22.4,21c0,0-0.1,0-0.1,0c-0.4,0-0.8,0.3-0.8,0.7
				c0,0.4,0.4,0.7,0.8,0.7c0.1,0,0.1,0,0.1,0c0.2,0.2,0.5,0.4,0.8,0.4c0.6,0,1.1-0.5,1.1-1.1c0-0.6-0.5-1.1-1.1-1.1
				C22.9,20.7,22.6,20.8,22.4,21z M23.4,30.8v-7.5c0,0-0.1-0.1-0.1-0.1c-0.4,0-0.8-0.4-1-0.4h0c-0.7,0-1.2-0.5-1.2-1.2
				c0-0.6,0.6-1.2,1.2-1.2h0c0.2,0,0.3-0.1,0.8-0.2v0.1c0,0,0,0,0-0.1c0.1,0,0.2,0,0.3,0V8.6l-12.8-6v36.5l12.8-4.7v0.6l-10.8,4.2
				l16.4,0v-8.9C29,30.2,27.4,31,23.4,30.8z M13,6.7l9.6,3.8v9H13V6.7z"/>
		</g>
	</g>
</g>
<g id="tekst">
</g>
</svg>
