<?xml version="1.0" encoding="utf-8"?>
<svg version="1.1"  xmlns="http://www.w3.org/2000/svg" xmlns:xlink="http://www.w3.org/1999/xlink" x="0px" y="0px" width="40px" height="40px"
	 viewBox="0 0 40 40" enable-background="new 0 0 40 40" xml:space="preserve">
<g id="Lag_1">
	<path fill="#FFFFFF" d="M20.1,6.3c-11,0-19.9,5.8-19.9,12.9c0,3.8,2.6,7.3,6.7,9.6l2,4.6l4.7-2c2.1,0.5,4.3,0.7,6.6,0.7
		c11,0,19.9-5.8,19.9-12.9S31.1,6.3,20.1,6.3z M20.3,26.4c-0.3,0.3-0.7,0.4-1.2,0.4c-0.5,0-0.9-0.1-1.2-0.4
		c-0.3-0.3-0.4-0.7-0.4-1.2c0-1.1,0.5-1.6,1.6-1.6c0.5,0,0.9,0.1,1.2,0.4c0.3,0.3,0.4,0.7,0.4,1.2C20.7,25.7,20.6,26.1,20.3,26.4z
		 M24.1,15.9c-0.2,0.4-0.4,0.8-0.7,1.2c-0.3,0.4-0.9,0.9-1.6,1.5c-0.7,0.5-0.7,1-0.9,1.3c-0.2,0.3,0.1,0.8,0.1,1.4V22h-4v-0.9
		c0-0.8,0.6-1.4,0.9-2s1-1.1,1.7-1.6c0.8-0.7,1.5-1.2,1.8-1.6c0.2-0.4,0.4-0.8,0.4-1.3c0-0.6-0.2-1.1-0.6-1.4
		c-0.4-0.3-1-0.5-1.7-0.5c-0.7,0-1.3,0.1-1.9,0.3c-0.6,0.2-1.1,0.4-1.7,0.7l-0.9-1.9c1.4-0.8,3-1.2,4.7-1.2c1.4,0,2.5,0.3,3.3,1
		c0.8,0.7,1.2,1.6,1.2,2.8C24.4,15,24.3,15.5,24.1,15.9z"/>
</g>
<g id="tekst">
</g>
</svg>
