<?xml version="1.0" encoding="utf-8"?>
<svg version="1.1"  xmlns="http://www.w3.org/2000/svg" xmlns:xlink="http://www.w3.org/1999/xlink" x="0px" y="0px" width="40px" height="40px"
	 viewBox="0 0 40 40" enable-background="new 0 0 40 40" xml:space="preserve">
<g id="Lag_1">
</g>
<g id="tekst">
	<g id="glasses_1_">
		<path fill="#FFFFFF" d="M36.9,16.9c-3-0.8-6.5-0.9-8.7-0.6c-2.2,0.2-6,1.1-8.2,1.1c-2.2-0.1-6-0.9-8.2-1.1
			c-2.3-0.2-5.7-0.1-8.7,0.6c-2.6,0.7-2.9,1.4-2.8,2.7c0.1,1.3,1.2,1.9,1.2,1.9s0.5,4.8,3.3,7.1c2.2,1.9,6.9,1.7,9.4,0.4
			c2.6-1.4,4.1-5.1,4.4-6.9c0.2-1.1,0.7-1.3,1.1-1.3h0.5c0.4,0,0.9,0.2,1.1,1.3c0.4,1.8,1.8,5.5,4.4,6.9c2.5,1.3,7.2,1.4,9.4-0.4
			c2.8-2.4,3.3-7.1,3.3-7.1s1.2-0.6,1.2-1.9C39.8,18.2,39.5,17.5,36.9,16.9z M13.9,27.6c-2.4,1.6-6.6,1.2-8.2-0.3
			c-1.5-1.3-2.4-4.4-2.2-6.7c0.2-2.4,2.2-2.7,3.6-2.8c1.4-0.1,8.7-0.4,9.9,2.8C17.7,22.2,16.3,25.9,13.9,27.6z M34.3,27.3
			c-1.7,1.5-5.8,1.9-8.2,0.3c-2.4-1.6-3.8-5.4-3.2-7c1.2-3.2,8.5-2.9,9.9-2.8c1.4,0.1,3.4,0.4,3.6,2.8C36.7,22.9,35.8,26,34.3,27.3z
			"/>
		<path fill="#FFFFFF" d="M2.8,15.7c0.6-0.1,1.2-0.3,1.9-0.4c6.6-8.3,7.6-8.7,8.8-8.7c0.9,0,3,2.6,5.1,2.7c0.7,0,1-1.4-0.5-2.5
			c-1.5-1-5.1-3.4-7.6-1.3c-1.9,1.6-5.6,6.2-8.3,10.3C2.3,15.8,2.6,15.7,2.8,15.7z"/>
		<path fill="#FFFFFF" d="M21.5,9.3c2.1-0.1,4.2-2.7,5.1-2.7c1.1,0,2.1,0.3,8.8,8.7c0.6,0.1,1.2,0.2,1.8,0.4
			c0.3,0.1,0.5,0.1,0.7,0.2c-2.7-4.1-6.4-8.7-8.3-10.3c-2.5-2.1-6.1,0.2-7.6,1.3C20.5,7.9,20.8,9.4,21.5,9.3z"/>
		<path fill="#FFFFFF" d="M25.1,21.9c0.5-1.3,3.2-2.1,7-2.1c0.8,0,1.5,0,1.6,0.1c0.6,0,1.1,0.1,1.5,0.2c-0.2-0.7-0.9-1-2.4-1.1
			c-0.2,0-0.8-0.1-1.6-0.1c-3.9,0-6.6,0.8-7,2.1c-0.4,1,0.6,4,2.5,5.4C25.3,24.9,24.7,22.7,25.1,21.9z"/>
		<path fill="#FFFFFF" d="M5.7,21.6c0.1-1.2,0.7-1.5,2.5-1.7c0.2,0,0.8-0.1,1.6-0.1c2.7,0,4.9,0.4,6.1,1.1c-0.6-1.2-3.2-2-7-2
			c-0.8,0-1.5,0-1.6,0.1c-1.8,0.1-2.4,0.5-2.5,1.7c-0.2,2.1,0.6,4.7,1.8,5.7c0.1,0.1,0.3,0.2,0.4,0.3C6,25.4,5.5,23.3,5.7,21.6z"/>
	</g>
</g>
</svg>
