<?xml version="1.0" encoding="utf-8"?>
<svg version="1.1"  xmlns="http://www.w3.org/2000/svg" xmlns:xlink="http://www.w3.org/1999/xlink" x="0px" y="0px" width="40px" height="40px"
	 viewBox="0 0 40 40" enable-background="new 0 0 40 40" xml:space="preserve">
<g id="Lag_1">
	<g>
		<path fill="#FFFFFF" d="M19.5,25.8h-1.9c0.6,3.5,1.9,6.3,1.9,6.4c0.2,0.4,0,0.8-0.4,1c-0.1,0-0.2,0.1-0.3,0.1
			c-0.3,0-0.6-0.2-0.7-0.4c0-0.1-0.6-1.3-1.1-3.2c-0.3-1.1-0.6-2.4-0.9-3.8c-0.2-1.2-0.4-2.6-0.4-3.9c0-0.2,0-0.4,0-0.5V18h-1.5v3.2
			c0,1.6,0.1,3.1,0.4,4.5H12c-0.2,2.6-0.1,5.8,0.6,9.8c0,0,0,0.1,0,0.1h9.6c0,0,0,0,0-0.1c0.7-2.3,0.9-5.1,0.4-6.2
			C22.3,28.3,20.7,26.9,19.5,25.8z"/>
	</g>
	<g>
		<path fill="#FFFFFF" d="M23.8,36.1c-0.3,1.2-0.8,1.2-1.1,1.2H12.2c-0.6,0-0.9-0.7-1.1-1.4c-1.2-7.3-0.6-12.3,0.2-15.2
			c0.6-2.2,1.4-3.6,1.7-4.2h1h1.5h1.5c0.4,0.4,0.9,1.1,0.9,1.7c0,0.4-0.1,0.7-0.2,1c-0.2,0.7-0.6,1.7,0.2,3c0.4,0.7,1.2,1.4,2.2,2.2
			c1.5,1.3,3.3,2.9,3.9,4.5C24.8,30.6,24.4,33.8,23.8,36.1z M21.6,23c-0.8-0.7-1.6-1.4-1.8-1.8c-0.3-0.5-0.2-0.6,0-1.2
			c0.2-0.4,0.3-1,0.3-1.7c0-1.8-1.7-3.3-1.9-3.5c-0.2-0.2-0.4-0.2-0.6-0.2h-4.9c-0.3,0-0.6,0.1-0.8,0.4c-0.2,0.3-5.2,6.4-2.7,21.3
			c0.3,1.9,1.5,3,3,3h10.4c1,0,2.4-0.5,3.1-2.6c0.6-2,1.3-6,0.3-8.4C25.2,26.2,23.2,24.4,21.6,23z"/>
	</g>
	<g>
		<path fill="#FFFFFF" d="M21.7,8.6c-0.2,0.1-0.5,0.1-0.7,0.2c-0.6,0.2-1,0.6-1.3,1c-0.4,0.5-0.7,1.1-0.8,1.6h1.4c0,0,0,0.1,0,0.1
			c0.6,1.3,1.4,2.6,2.3,3.7c0.2,0.3,0.6,0.4,0.9,0.2c0.3-0.2,0.4-0.6,0.2-1l0,0c-0.7-1.1-1.2-2.4-1.6-3.6C22,10.3,21.9,9.6,21.8,9
			C21.8,8.9,21.7,8.8,21.7,8.6z"/>
	</g>
	<g>
		<path fill="#FFFFFF" d="M23.1,7.2C23.1,7.2,23.1,7.2,23.1,7.2l2.1-0.2c0.2,0,0.4-0.2,0.4-0.4V6.2V3.5c0-0.2-0.2-0.4-0.4-0.4
			L23.8,3l-0.6-0.1c0,0,0,0,0,0h0v0.4v3.5L23.1,7.2L23.1,7.2L23.1,7.2z"/>
	</g>
	<g>
		<path fill="#FFFFFF" d="M17.3,12.6C17.3,12.6,17.3,12.6,17.3,12.6C17.3,12.6,17.3,12.6,17.3,12.6z M8.8,7.6c0,0,0.9,0.2,1.7,0.9
			c1.1,0.8,1.6,1.8,1.6,3v1.2c0,0.2,0.1,0.3,0.3,0.4c0,0,0.1,0,0.2,0h4.7c0,0,0,0,0,0c0.1,0,0.1,0,0.2,0c0.1-0.1,0.3-0.2,0.3-0.4
			c0,0,0,0,0-0.1c0-0.1,0-0.3,0-0.6c0-0.1,0-0.3,0-0.4c0.1-0.8,0.4-1.7,1.2-2.6c0.1-0.1,0.3-0.3,0.5-0.4c0.4-0.3,0.8-0.6,1.4-0.9
			c0.2-0.1,0.5-0.2,0.8-0.2c0.1,0,0.3-0.1,0.4-0.1V6.9v0V3.3V2.9H15c-1.9,0-3.6,0.7-4.9,2C9,6,8.6,7,8.5,7c-0.1,0.1-0.1,0.2,0,0.4
			C8.6,7.5,8.7,7.6,8.8,7.6z"/>
	</g>
	<g>
		<circle fill="#FFFFFF" cx="29" cy="5.1" r="1"/>
	</g>
	<g>
		<circle fill="#FFFFFF" cx="34.8" cy="5.1" r="1"/>
	</g>
	<g>
		<circle fill="#FFFFFF" cx="34.8" cy="8.5" r="1"/>
	</g>
	<g>
		<circle fill="#FFFFFF" cx="34.8" cy="1.7" r="1"/>
	</g>
	<g>
		<circle fill="#FFFFFF" cx="31.9" cy="6.8" r="1"/>
	</g>
	<g>
		<circle fill="#FFFFFF" cx="31.9" cy="3.4" r="1"/>
	</g>
</g>
<g id="tekst">
</g>
</svg>
