<?xml version="1.0" encoding="utf-8"?>
<svg version="1.1"  xmlns="http://www.w3.org/2000/svg" xmlns:xlink="http://www.w3.org/1999/xlink" x="0px" y="0px" width="40px" height="40px"
	 viewBox="0 0 40 40" enable-background="new 0 0 40 40" xml:space="preserve">
<g id="Lag_1_1_">
	<g>
		<path fill="#395F77" d="M39.2,40H0.8C0.4,40,0,39.6,0,39.2V0.8C0,0.3,0.4,0,0.8,0s0.8,0.3,0.8,0.8V38c0,0.2,0.2,0.4,0.4,0.4h37.2
			c0.5,0,0.8,0.3,0.8,0.8C40,39.6,39.7,40,39.2,40z"/>
	</g>
	<g>
		<path fill="#395F77" d="M9.9,36H5.2c-0.3,0-0.6-0.3-0.6-0.6v-3.9c0-0.3,0.3-0.6,0.6-0.6h4.7c0.3,0,0.6,0.3,0.6,0.6v3.9
			C10.5,35.7,10.3,36,9.9,36z"/>
	</g>
	<g>
		<path fill="#395F77" d="M19.5,36h-4.7c-0.3,0-0.6-0.3-0.6-0.6v-8c0-0.3,0.3-0.6,0.6-0.6h4.7c0.3,0,0.6,0.3,0.6,0.6v8
			C20.1,35.7,19.8,36,19.5,36z"/>
	</g>
	<g>
		<path fill="#395F77" d="M29.1,36h-4.7c-0.3,0-0.6-0.3-0.6-0.6V25.3c0-0.3,0.3-0.6,0.6-0.6h4.7c0.3,0,0.6,0.3,0.6,0.6v10.1
			C29.7,35.7,29.4,36,29.1,36z"/>
	</g>
	<g>
		<path fill="#395F77" d="M38.6,36h-4.7c-0.3,0-0.6-0.3-0.6-0.6V19.1c0-0.3,0.3-0.6,0.6-0.6h4.7c0.3,0,0.6,0.3,0.6,0.6v16.3
			C39.2,35.7,39,36,38.6,36z"/>
	</g>
	<g>
		<path fill="#395F77" d="M24.4,15.8L20,14.3c-0.5-0.2-1,0.1-1.1,0.7c-0.1,0.4,0.2,0.8,0.6,1l2.4,0.8c0.1,0.1,0.1,0.2,0,0.2
			L5.7,24.7c-0.4,0.2-0.6,0.7-0.5,1.1c0.1,0.3,0.5,0.6,0.8,0.6c0.1,0,0.2,0,0.4-0.1l15.9-7.7c0.1-0.1,0.2,0.1,0.2,0.1l-0.7,2.1
			c-0.2,0.5,0.1,0.9,0.5,1.1c0.1,0.1,0.2,0.1,0.3,0.1c0.3,0,0.7-0.2,0.8-0.6l1.5-4.4C25,16.5,24.8,16,24.4,15.8z"/>
	</g>
</g>
<g id="tekst">
</g>
</svg>
