<?xml version="1.0" encoding="utf-8"?>
<svg version="1.1"  xmlns="http://www.w3.org/2000/svg" xmlns:xlink="http://www.w3.org/1999/xlink" x="0px" y="0px" width="40px" height="40px"
	 viewBox="0 0 40 40" enable-background="new 0 0 40 40" xml:space="preserve">
<g id="Lag_1_1_">
	<g>
		<g>
			<path d="M4.4,8.5c0.2,0,0.3-0.1,0.4-0.3S4.7,7.8,4.5,7.7L1.6,7.1C1.3,7,1.1,7.1,1.1,7.3C1,7.5,1.2,7.8,1.4,7.8L4.4,8.5
				C4.3,8.5,4.4,8.5,4.4,8.5z M8.9,15.2c-0.2-0.1-0.4,0.1-0.5,0.3l-0.7,2.9c-0.1,0.2,0.1,0.4,0.3,0.5h0.1c0.2,0,0.3-0.1,0.4-0.3
				l0.7-2.9C9.3,15.4,9.1,15.2,8.9,15.2z M13.7,14.7c-0.1-0.2-0.3-0.2-0.5-0.1c-0.2,0.1-0.2,0.3-0.1,0.5l1.5,2.6
				c0.1,0.1,0.2,0.2,0.3,0.2s0.1,0,0.2-0.1c0.2-0.1,0.2-0.3,0.1-0.5L13.7,14.7z M25.6,13.7c0.1,0,0.3,0,0.4,0.1v-2.4L22.2,1.2
				l-0.3,0.1l3,12.6C25.1,13.8,25.4,13.7,25.6,13.7z M27,14.5c0.2,0.3,0.3,0.6,0.3,0.9c0,0.2,0,0.3-0.1,0.5l1.1,0.6l10.5,2l0.1-0.4
				L27,14.5z M24.1,15.9c-0.6,0.3-1.2,0.5-1.8,0.8c-0.1,0-0.2,0.1-0.2,0.2c-2.2,2.8-4.5,5.5-6.7,8.3c0.2,0.2,0.1,0.1,0.3,0.3
				l9.2-8.7C24.5,16.6,24.3,16.3,24.1,15.9z M25.6,17c-0.2,0-0.4,0-0.5-0.1l-0.5,22.4c0,0.3,0.3,0.5,0.6,0.5h1.1
				c0.3,0,0.6-0.2,0.6-0.5l-0.5-22.4C26.1,16.9,25.9,17,25.6,17z M25.6,14c-0.7,0-1.3,0.6-1.3,1.3s0.6,1.3,1.3,1.3
				c0.7,0,1.3-0.6,1.3-1.3C27,14.6,26.4,14,25.6,14z M14.6,10.9c0.6-2.5-0.9-4.9-3.3-5.5c-2.5-0.7-5,0.8-5.6,3.2
				c-0.6,2.5,0.9,4.9,3.3,5.5C11.5,14.8,14,13.3,14.6,10.9z M11.7,4.1L11.7,4.1c0.3,0,0.4-0.1,0.5-0.3l0.7-2.9
				c0.1-0.2-0.1-0.4-0.3-0.5s-0.4,0.1-0.5,0.3l-0.7,2.9C11.3,3.9,11.5,4.1,11.7,4.1z M17.9,4.7c0.2-0.1,0.2-0.4,0.1-0.5
				C17.9,4,17.6,4,17.5,4.1L15,5.8c-0.2,0.1-0.2,0.4-0.1,0.5c0.1,0.1,0.2,0.2,0.3,0.2s0.2,0,0.2-0.1L17.9,4.7z M5.1,12.8l-2.5,1.8
				c-0.2,0.1-0.2,0.4-0.1,0.5c0.1,0.1,0.2,0.2,0.3,0.2s0.2,0,0.2-0.1l2.5-1.8c0.2-0.1,0.2-0.4,0.1-0.5C5.5,12.8,5.3,12.7,5.1,12.8z
				 M15.8,11c-0.1,0.2,0.1,0.4,0.3,0.5l2.9,0.7h0.1c0.2,0,0.3-0.1,0.4-0.3s-0.1-0.4-0.3-0.5l-2.9-0.7C16.1,10.7,15.9,10.8,15.8,11z
				 M6.9,4.6C7,4.7,7.1,4.8,7.3,4.8c0.1,0,0.1,0,0.2-0.1c0.2-0.1,0.2-0.3,0.1-0.5L6.1,1.6C6,1.4,5.7,1.3,5.5,1.4
				C5.4,1.5,5.3,1.8,5.4,1.9L6.9,4.6z"/>
		</g>
	</g>
</g>
<g id="tekst">
</g>
</svg>
