<?xml version="1.0" encoding="utf-8"?>
<svg version="1.1"  xmlns="http://www.w3.org/2000/svg" xmlns:xlink="http://www.w3.org/1999/xlink" x="0px" y="0px" width="40px" height="40px"
	 viewBox="0 0 40 40" enable-background="new 0 0 40 40" xml:space="preserve">
<g id="Lag_1_1_">
	<g>
		<g>
			<path d="M32.4,1.6L32.4,1.6c-2.7,2.5-4.4,7-5.4,7.8c-0.3,0.2-0.5,0.3-0.9,0.4C25.2,10,24.2,9.7,23.6,9L21,6.5
				c-1.1-1.1-2.9-1.1-4.1,0l-1.6,1.6l15.1,15l1.6-1.6c1.1-1.1,1.1-2.9,0-4.1l-2.5-2.5c-0.7-0.7-1-1.7-0.8-2.6
				c0.1-0.3,0.2-0.6,0.4-0.9c0.8-1.1,5.3-2.7,7.7-5.3c0,0,0,0,0.1-0.1C39.5,3.1,35.4-1,32.4,1.6z M34.9,5.1c-0.4,0.4-1.1,0.4-1.5,0
				S33,4,33.4,3.6s1.1-0.4,1.5,0C35.3,4,35.3,4.7,34.9,5.1z M7.8,15.6c-0.9,0.9-2.2,1.6-3.5,1.7c-0.6,0-1.2,0-1.8-0.2l11.7,12.2
				c0,0,1.5,0.9,4.7-0.6c0,0-1.2,2.1-3.2,2.3l2,2.1c0,0,0.1,0.1,0.3,0.1c-0.6,1.3-1,3.3-1,4.1c0,1.3,1,2.3,2.3,2.3s2.3-1,2.3-2.3
				c0-0.8-0.5-3-1.1-4.3c0.3-0.2,0.5-0.3,0.8-0.5l0.8-0.8l7.7-7.6L14.5,8.9L7.8,15.6z"/>
		</g>
	</g>
</g>
<g id="tekst">
</g>
</svg>
