<?xml version="1.0" encoding="utf-8"?>
<svg version="1.1"  xmlns="http://www.w3.org/2000/svg" xmlns:xlink="http://www.w3.org/1999/xlink" x="0px" y="0px" width="40px" height="40px"
	 viewBox="0 0 40 40" enable-background="new 0 0 40 40" xml:space="preserve">
<g id="Lag_1">
	<g>
		<g>
			<g>
				<path fill="#FFFFFF" d="M15.9,15.9c0,2.5,2,4.5,4.5,4.5s4.5-2,4.5-4.5s-2-4.5-4.5-4.5S15.9,13.4,15.9,15.9z M11.5,33.8
					c0-2.5,0-6.3,0-7.4c0-1.6,0.2-2.3,1-3.2c0.7-0.9,1.7-1.4,2.8-1.4h0.6l2.4,4.8l1.3-1.9c-0.3-0.2-0.7-0.8-0.7-1.9
					c0-0.8,0.7-1,1.5-1c0.8,0,1.5,0.1,1.5,1c0,1.2-0.4,1.7-0.7,1.9l1.3,1.9l2.4-4.8h0.6c1.1,0,2.1,0.5,2.8,1.4c0.7,0.9,1,1.6,1,3.1
					c0,1,0,4.9,0,7.5L11.5,33.8z"/>
			</g>
		</g>
		<g>
			<g>
				<circle fill="#FFFFFF" cx="9" cy="10.8" r="4.5"/>
				<path fill="#FFFFFF" d="M9.7,26.4c0-2,0.4-3.1,1.4-4.4c1.1-1.3,2.6-2.1,4.2-2.1h0.6c-0.8-2-1.4-2.4-1.6-3.7c0,0-0.1-0.3-0.1-0.3
					h-0.6l-2.4,5.1l-1.3-1.7c0.3-0.2,0.7-0.7,0.7-1.8c0-0.8-0.6-0.9-1.5-0.9c-0.8,0-1.5,0.2-1.5,1c0,1.2,0.4,1.7,0.7,1.9l-1.3,1.5
					L4.5,16H3.8c-1.1,0-2.1,0.9-2.8,1.8c-0.7,0.9-1,1.8-1,3.4c0,1,0,4.9,0,7.5l9.7,0C9.7,27.6,9.7,26.8,9.7,26.4z"/>
			</g>
		</g>
		<g>
			<g>
				<circle fill="#FFFFFF" cx="30.5" cy="10.8" r="4.5"/>
				<path fill="#FFFFFF" d="M25,20h0.6c0.9,0,1.7,0.3,2.4,0.6l-1.6-3.2C26.1,18.5,25.6,18,25,20z"/>
				<path fill="#FFFFFF" d="M38.7,17.8c-0.7-0.9-2-1.8-3.1-1.8H35l-2.4,5.1l-1.3-1.7c0.3-0.2,0.7-0.7,0.7-1.8c0-0.8-0.6-0.9-1.5-0.9
					c-0.8,0-1.5,0.2-1.5,1c0,1.2,0.4,1.7,0.7,1.9l-1,1.5c0.4,0.3,1.2,0.6,1.5,1c1,1.2,1.8,2.4,1.8,4.2V28h8c0-3,0-5.8,0-6.8
					C40,19.7,39.4,18.6,38.7,17.8z"/>
			</g>
		</g>
	</g>
</g>
<g id="tekst">
</g>
</svg>
