<?xml version="1.0" encoding="utf-8"?>
<svg version="1.1"  xmlns="http://www.w3.org/2000/svg" xmlns:xlink="http://www.w3.org/1999/xlink" x="0px" y="0px" width="40px" height="40px"
	 viewBox="0 0 40 40" enable-background="new 0 0 40 40" xml:space="preserve">
<g id="Lag_1">
	<g>
		<path fill="#000000" d="M27.6,8.3c-2,0-3.5,1.3-3.4,2.8c0.2,1.5,1.7,2.6,3.4,2.6c1.7,0,3.2-1.1,3.4-2.6
			C31.1,9.6,29.6,8.3,27.6,8.3z"/>
		<path fill="#000000" d="M20.9,13h0.4l0.2,0.2c0.4,0.5,1,1.2,1.5,1.6c-0.4-3-1.1-5.2-1.7-8.8C22.9,5.8,24,4.8,24,3
			c2.8-0.5,4.3-0.7,7.1,0c0.1,1.7,1,2.6,2.8,2.9c-0.7,4-1.4,6.2-1.9,9.7l1.7,0c0,0,0.1,0,0.1,0c0.7-4.3,2-7.7,3.1-13.1
			c0.1-0.3-0.2-0.7-0.7-0.8c-6.9-2-10.6-2-17.5,0c-0.4,0.1-0.7,0.5-0.7,0.8C19,6.8,20,9.8,20.8,13C20.8,13,20.8,13,20.9,13z"/>
		<g>
			<path fill="#000000" d="M7.6,18.5H3.2C2.5,18.5,2,19,2,19.6v17.9c0,0.6,0.5,1.1,1.1,1.1h4.5c0.6,0,1.1-0.5,1.1-1.1V19.6
				C8.8,19,8.3,18.5,7.6,18.5z"/>
		</g>
		<path fill="#000000" d="M33.8,17.1c1.8,0.1,3.2,1.5,3.2,3.2c0,1.4-0.9,2.6-2.2,3c1.3,0.4,2.2,1.5,2.2,2.8c0,1.5-1.2,2.7-2.7,3
			c0.8,0.6,1.4,1.4,1.4,2.4c0,1.7-1.5,3-3.4,3h-0.6C32.5,35.2,33,36,33,37c0,1.7-1.5,3-3.4,3h-4c-8.4,0-8.9-3.6-15.5-4
			c0,0,0-16.2,0-16.2c8.1,0,6.7-5.4,10.8-5.4c0,0,0,0,0,0l-0.1,0c0,0,1.3,1.7,2.2,2.1h0c0.9,0.4,2.2,0.6,4.5,0.6H32L33.8,17.1z"/>
	</g>
</g>
<g id="tekst">
</g>
</svg>
