<?xml version="1.0" encoding="utf-8"?>
<svg version="1.1"  xmlns="http://www.w3.org/2000/svg" xmlns:xlink="http://www.w3.org/1999/xlink" x="0px" y="0px" width="40px" height="40px"
	 viewBox="0 0 40 40" enable-background="new 0 0 40 40" xml:space="preserve">
<g id="Lag_1_1_">
	<g>
		<path fill="#FFFFFF" d="M17.5,18.2l-0.7-0.6c-0.3-0.3-0.8-0.1-1,0.1l-0.7,1l-4.8-3.4c-0.1-0.1-0.3-0.1-0.4,0l-1.3,0.6
			c-0.3,0.1-0.3,0.6,0,0.7L24.8,28c0.3,0.1,0.6,0,0.7-0.3l0.1-1.4c0-0.1,0-0.3-0.1-0.4l-4.8-3.4l0.7-1c0.3-0.3,0.1-0.8-0.1-1
			L20.6,20l0,0L17.5,18.2L17.5,18.2z"/>
	</g>
	<g>
		<path fill="#FFFFFF" d="M32,1.1l-0.7-0.6c-0.4-0.3-1,0-1.3,0.4L18.4,16.9l2.7,1.8l11-16.4C32.4,1.9,32.4,1.4,32,1.1z"/>
	</g>
	<g>
		<path fill="#FFFFFF" d="M4.8,20.8c-0.4,0.4-0.3,1,0.1,1.3L7,23.5l2-1.7l-1,2.4l1.7,1.3l2-1.7l-1,2.4l7.2,4.9l2-1.7l-1,2.4l2,1.4
			c0.4,0.3,1,0.1,1.3-0.3l1.7-3.5L7.4,18L4.8,20.8z"/>
	</g>
	<path fill="#FFFFFF" d="M39.5,39.6H0.5c-0.3,0-0.4-0.3-0.4-0.4v-1.7c0-0.3,0.3-0.4,0.4-0.4h38.9c0.3,0,0.4,0.3,0.4,0.4v1.7
		C39.9,39.3,39.8,39.6,39.5,39.6z"/>
	<g>
		<circle fill="#FFFFFF" cx="28.7" cy="33.4" r="0.8"/>
	</g>
	<g>
		<circle fill="#FFFFFF" cx="31.4" cy="30" r="0.8"/>
	</g>
	<g>
		<circle fill="#FFFFFF" cx="33.8" cy="33.4" r="0.8"/>
	</g>
	<g>
		<circle fill="#FFFFFF" cx="33.8" cy="26.6" r="0.8"/>
	</g>
	<g>
		<circle fill="#FFFFFF" cx="35.8" cy="30" r="0.8"/>
	</g>
	<g>
		<circle fill="#FFFFFF" cx="38.6" cy="33.4" r="0.8"/>
	</g>
</g>
<g id="tekst">
</g>
</svg>
