<?xml version="1.0" encoding="utf-8"?>
<svg version="1.1"  xmlns="http://www.w3.org/2000/svg" xmlns:xlink="http://www.w3.org/1999/xlink" x="0px" y="0px" width="40px" height="40px"
	 viewBox="0 0 40 40" enable-background="new 0 0 40 40" xml:space="preserve">
<g id="Lag_1_1_">
	<g>
		<g>
			<path d="M36.5,2.5h-3.3V1h-2.7v1.5h-3.2V1h-2.8v1.5h-3.2V1h-2.8v1.5h-3.2V1h-2.8v1.5h-3V1H6.7v1.5H3.5c-1.1,0-2,0.9-2,2v32.8
				c0,1.1,1,1.9,2,1.9h26.1c0.7,0,1.6-0.3,2.1-0.8l5.8-5.8c0.1-0.1,0.2-0.2,0.3-0.3c0.3-0.5,0.6-1.1,0.6-1.6V4.5
				C38.5,3.3,37.6,2.5,36.5,2.5z M30.5,4.8h2.7V8h-2.7V4.8z M24.6,4.8h2.8V8h-2.8V4.8z M12.6,4.8h2.8V8h-2.8V4.8z M6.7,4.7h2.8v3.2
				H6.7V4.7z M15.5,27.7h-3.1v-8.4v-1.4v-1.5c-0.5,0.5-0.9,0.8-1.1,1l-1.7,1.3l-1.5-1.8l4.7-3.7h2.5v14.5H15.5z M18.6,4.7h2.7v3.2
				h-2.7V4.7z M24.7,27.9c-1.1,0-2-0.2-2.8-0.7S20.5,26,20.1,25s-0.7-2.1-0.7-3.4c0-2.9,0.6-5,1.8-6.4c1.2-1.4,3-2.1,5.5-2.1
				c0.8,0,1.5,0,1.9,0.1v2.5c-0.6-0.1-1.2-0.2-1.7-0.2c-1.1,0-1.9,0.2-2.6,0.5s-1.2,0.8-1.5,1.4s-0.5,1.5-0.6,2.7h0.1
				c0.7-1.1,1.7-1.7,3.1-1.7c1.3,0,2.3,0.4,3,1.2c0.7,0.8,1.1,1.9,1.1,3.4s-0.4,2.8-1.3,3.7C27.5,27.5,26.3,27.9,24.7,27.9z
				 M29.2,38.2v-8.5h8.6L29.2,38.2z M24.7,20.6c-0.6,0-1.2,0.2-1.6,0.6s-0.7,0.9-0.7,1.4c0,0.8,0.2,1.5,0.6,2s0.9,0.8,1.6,0.8
				s1.2-0.2,1.5-0.7c0.4-0.4,0.5-1.1,0.5-1.9c0-0.7-0.2-1.3-0.5-1.7S25.4,20.6,24.7,20.6z"/>
		</g>
	</g>
</g>
<g id="tekst">
</g>
</svg>
