<?xml version="1.0" encoding="utf-8"?>
<svg version="1.1"  xmlns="http://www.w3.org/2000/svg" xmlns:xlink="http://www.w3.org/1999/xlink" x="0px" y="0px" width="40px" height="40px"
	 viewBox="0 0 40 40" enable-background="new 0 0 40 40" xml:space="preserve">
<g id="Lag_1_1_">
	<path d="M32.6,12.2c-0.7,3.2-3.7,3.2-5.2,6.4s-0.6,5.4-0.2,6.2c-0.3,0.5-0.6,1-0.9,1.5c-0.6,0.8-1.1,1.7-1.6,2.6
		c-0.1-1.3-0.2-2.6-0.4-3.9c-0.3-2.1-0.7-4.1-1.3-6.1c0-0.2-0.1-0.3-0.1-0.5c0.7-0.8,2.6-3.4,1.5-7.9c-1.1-4.6-5.6-5.2-6.7-9.8
		c-1.2,5.3-3,8-1.7,12.1c1.3,3.9,5,5.4,6.2,5.8c0,0.2,0.1,0.3,0.1,0.5c0.4,2,0.6,4,0.6,6.1c0,0.3,0,0.6,0,0.9
		c-0.4-0.3-0.8-0.7-1.1-1c-0.9-0.7-1.7-1.4-2.7-2c-0.2-0.2-0.5-0.3-0.7-0.5c-0.2-1-1.2-4.3-3.3-5.7c-2.9-2-5-0.7-7.6-2.5
		c1.2,3.4,1.4,6,4.3,7.7c2.2,1.3,4.8,1.1,6,1c0.3,0.2,0.5,0.4,0.8,0.7c1.6,1.4,3,3,4.3,4.6c0,1-0.1,1.9-0.1,2.9
		c-0.1,2-0.3,4.1-0.6,6l2.6,0.3c0.1-1.9,0.1-3.8,0-5.6c0.3-0.8,0.6-1.5,0.9-2.3c0.4-1,0.8-1.9,1.3-2.9c0.3-0.6,0.5-1.2,0.8-1.7
		c0.9-0.2,3.1-0.9,4.6-3.2C34.1,19,33.3,15.8,32.6,12.2z"/>
	<path d="M19.4,34.1c-0.6,0.1-0.9,0.2-1.1,0.9c-0.4-0.2-0.9-0.7-1.2-0.3c-0.2,0.2-0.3,0.8-0.7,0.4c-0.4-0.2-0.8-0.3-1.3-0.3
		c-0.4-0.1-0.7,0.1-0.8,0.6C13.6,35,12.7,34.9,12,35s-2.6,0.6-2.6,1.9c-0.7-0.8-3-0.2-3.3,0.5c-0.2-0.8-3.7,0.2-3.7,0.7
		c0,1,13,1,19,1c4.5,0,17,0,17-1.2c0-0.7-2.9-1.1-3.4-0.9c-0.5-0.4-2.1-1.2-3.2-0.4c-0.5-0.8-4-2.1-4.6-1c-0.4-1.3-2.1-1.4-2.8-0.9
		c-0.1-1.1-2.8-0.8-3.1,0C21.1,34.4,20.1,34,19.4,34.1z"/>
</g>
<g id="tekst">
</g>
</svg>
