<?xml version="1.0" encoding="utf-8"?>
<svg version="1.1"  xmlns="http://www.w3.org/2000/svg" xmlns:xlink="http://www.w3.org/1999/xlink" x="0px" y="0px" width="40px" height="40px"
	 viewBox="0 0 40 40" enable-background="new 0 0 40 40" xml:space="preserve">
<g id="Lag_1_1_">
	<g>
		<g>
			<path fill="#FFFFFF" d="M12.6,20.1h14.5v-1.2H12.6V20.1z M27.1,16.5H12.6v1.2h14.5V16.5z M7.9,13.9c0-0.5,0.4-0.8,0.9-0.8h22
				c0.6,0,1.1,0.4,1.1,1V19l6.8-4.9c-0.2-0.3-0.4-0.5-0.6-0.7L21.3,1.2c-0.4-0.2-1-0.5-1.4-0.5s-1,0.1-1.4,0.5l-17,12
				c-0.2,0.2-0.4,0.4-0.5,0.6l7,5.1L7.9,13.9L7.9,13.9z M0.5,15.1C0.5,15.1,0.6,15.1,0.5,15.1v21.8c0,0.5,0.1,0.9,0.4,1.3L14.1,25
				L0.5,15.1z M20.2,29.1c-0.1,0.1-0.2,0.1-0.4,0.1s-0.2,0-0.4-0.1L15,25.8L1.8,39.1c0.3,0.2,0.7,0.3,1.1,0.3h33.8
				c0.4,0,0.8-0.1,1.2-0.3L24.7,25.8L20.2,29.1z M25.6,25.1l13.1,13.1c0.2-0.4,0.4-0.8,0.4-1.3V15.2L25.6,25.1z"/>
		</g>
	</g>
</g>
</svg>
