<?xml version="1.0" encoding="utf-8"?>
<svg version="1.1"  xmlns="http://www.w3.org/2000/svg" xmlns:xlink="http://www.w3.org/1999/xlink" x="0px" y="0px" width="40px" height="40px"
	 viewBox="0 0 40 40" enable-background="new 0 0 40 40" xml:space="preserve">
<g id="Lag_1">
	<g>
		<path fill="#FFFFFF" d="M35.6,20c0,0.1-0.1,0.2-0.3,0.3l-0.1,0l-0.1,0c-0.1,0-0.2-0.1-0.2-0.1c-0.3,0-0.5-0.3-0.6-0.5
			c-3.6-6.5-10.4-6.8-11.8-6.8c-0.2,0-0.3,0-0.3,0h-0.1c-4.7,0-7.3,3.6-7.3,3.7c-0.3,0.4-0.9,0.5-1.3,0.2c-0.2-0.1-0.3-0.3-0.4-0.6
			c0-0.2,0-0.5,0.2-0.7c0.1-0.2,3.2-4.4,8.8-4.4h0.2c0.9,0,8.7,0.2,13.1,8.2C35.6,19.6,35.7,19.8,35.6,20z M27.3,19.5
			c-0.7,0-1.2-0.5-1.2-1.2c0-0.7,0.5-1.2,1.2-1.2s1.2,0.5,1.2,1.2C28.5,18.9,28,19.5,27.3,19.5z M22.8,19.5c-0.7,0-1.2-0.5-1.2-1.2
			c0-0.7,0.5-1.2,1.2-1.2c0.7,0,1.2,0.5,1.2,1.2C24,18.9,23.5,19.5,22.8,19.5z M18.4,19.5c-0.7,0-1.2-0.5-1.2-1.2
			c0-0.7,0.5-1.2,1.2-1.2c0.7,0,1.2,0.5,1.2,1.2C19.5,18.9,19,19.5,18.4,19.5z M38.7,26.9l-0.2-0.4c0,0-0.1-2-0.4-5.1
			c-0.1-0.6-0.7-1.2-0.9-1.8c-1.1-3.5-3-7.1-8-9.5c0,0-6.6-3.8-14.5,0.4c0,0-3.3,1.7-4.9,5.2c-0.3,0.7-1.6,1.3-1.8,2.1
			c0,0-0.2,8-3.4,9c0,0-2.1,0.8-2.9,1c0,0-2.3,0.6-1.2,1.9c0,0,0.3,0.8,5.2,0.1c0,0,10.1-1.7,19-0.3c0,0,11.8,1.9,15.2-1
			C39.9,28.5,40.7,27.6,38.7,26.9z"/>
	</g>
</g>
<g id="tekst">
</g>
</svg>
