<?xml version="1.0" encoding="utf-8"?>
<svg version="1.1"  xmlns="http://www.w3.org/2000/svg" xmlns:xlink="http://www.w3.org/1999/xlink" x="0px" y="0px" width="40px" height="40px"
	 viewBox="0 0 40 40" enable-background="new 0 0 40 40" xml:space="preserve">
<g id="Lag_1_1_">
	<path d="M39.2,8.5c-1.4,0.6-2.9,1-4.5,1.2c1.7-1,2.9-2.5,3.5-4.3c-1.4,0.8-3.3,1.7-5,1.9c-1.4-1.4-3.5-2.5-5.8-2.5
		c-4.3,0-7.8,3.5-7.8,7.8c0,0.6,0,1.2,0.2,1.9C13.2,14.1,7.4,11,3.5,6.3c-0.6,1.2-1,2.5-1,3.9c0,2.7,1.4,5.2,3.5,6.6
		c-1.2,0-2.5-0.4-3.5-1l0,0c0,3.9,2.7,7,6.4,7.8c-0.6,0.2-1.4,0.2-2.1,0.2c-0.4,0-1,0-1.4-0.2c1,3.1,3.9,5.4,7.4,5.6
		c-2.7,2.1-6.2,3.3-9.9,3.3c-0.6,0-1.2,0-1.9-0.2c3.5,2.3,7.6,3.5,12.2,3.5c14.6,0,22.5-12,22.5-22.5c0-0.4,0-0.6,0-1
		C36.7,11.6,38.2,10.2,39.2,8.5z"/>
</g>
<g id="tekst">
</g>
</svg>
