<?xml version="1.0" encoding="utf-8"?>
<!-- Generator: Adobe Illustrator 18.0.0, SVG Export Plug-In . SVG Version: 6.00 Build 0)  -->
<!DOCTYPE svg PUBLIC "-//W3C//DTD SVG 1.1//EN" "http://www.w3.org/Graphics/SVG/1.1/DTD/svg11.dtd" [
	<!ENTITY ns_extend "http://ns.adobe.com/Extensibility/1.0/">
	<!ENTITY ns_ai "http://ns.adobe.com/AdobeIllustrator/10.0/">
	<!ENTITY ns_graphs "http://ns.adobe.com/Graphs/1.0/">
	<!ENTITY ns_vars "http://ns.adobe.com/Variables/1.0/">
	<!ENTITY ns_imrep "http://ns.adobe.com/ImageReplacement/1.0/">
	<!ENTITY ns_sfw "http://ns.adobe.com/SaveForWeb/1.0/">
	<!ENTITY ns_custom "http://ns.adobe.com/GenericCustomNamespace/1.0/">
	<!ENTITY ns_adobe_xpath "http://ns.adobe.com/XPath/1.0/">
]>
<svg version="1.1" xmlns:x="&ns_extend;" xmlns:i="&ns_ai;" xmlns:graph="&ns_graphs;"
	 xmlns="http://www.w3.org/2000/svg" xmlns:xlink="http://www.w3.org/1999/xlink" x="0px" y="0px" width="40px" height="40px"
	 viewBox="0 0 40 40" enable-background="new 0 0 40 40" xml:space="preserve">
<metadata>
	<sfw  xmlns="&ns_sfw;">
		<slices></slices>
		<sliceSourceBounds  width="900.5" height="864.2" y="-756.2" x="-31.1" bottomLeftOrigin="true"></sliceSourceBounds>
	</sfw>
</metadata>
<g id="Lag_1">
	<g>
		<g>
			<path fill="#395F77" d="M18.1,27h10.7c0,0,0,0,0,0c0.4,0,0.7-0.3,0.7-0.7c0-0.4-0.3-0.7-0.7-0.7H18.1c-0.4,0-0.7,0.3-0.7,0.7
				c0,0.1,0,0.1,0,0.2C17.5,26.8,17.8,27,18.1,27z"/>
			<path fill="#395F77" d="M36.9,15.5H16.4c-1.7,0-3.1,1.4-3.1,3l1.1,0h-1.1l0,3.1v1.6l0,4.7V30c0,0.1,0,0.1,0,0.2c0,0,0,0,0,0
				c0,1.7,1.4,3,3.1,3h20.4c1.7,0,3.1-1.4,3.1-3V18.5C39.9,16.8,38.6,15.5,36.9,15.5z M38.5,30.9c0,0.5-0.4,0.9-1,0.9l-21.7,0.1
				c-0.5,0-0.9-0.4-1-0.9v-3.9l0-3.6l23.6-0.1V30.9L38.5,30.9z M38.5,19.4H14.7V18c0-0.6,0.5-1,1-1h21.8c0.6,0,1,0.5,1,1V19.4z"/>
			<path fill="#395F77" d="M27.3,13.8L25.1,8c-0.5-1.2-1.6-2-2.9-2c-0.4,0-0.7,0.1-1.1,0.2L2,13.1c-1.2,0.4-2,1.6-2,2.9
				c0,0.3,0.1,0.7,0.2,1v0l4,11c0.5,1.2,1.6,2,2.9,2c0.3,0,0.7-0.1,1.1-0.2l3.5-1.3l0-4.7l-4,1.4c-0.1,0-0.2,0-0.3,0
				c-0.3,0-0.6-0.2-0.7-0.5c-0.1-0.4,0.1-0.8,0.4-0.9l4.5-1.6l0-3.7c0,0,0-0.1,0-0.1c0.1-2.5,2.2-4.6,4.7-4.6H27.3L27.3,13.8z
				 M9,20.2L6.7,21c-0.1,0-0.3,0.1-0.4,0.1c-0.5,0-1-0.3-1.2-0.8l-0.5-1.5c-0.1-0.1-0.1-0.3-0.1-0.4c0-0.5,0.3-1,0.8-1.1l2.2-0.8
				c0.1,0,0.3-0.1,0.4-0.1c0.5,0,1,0.3,1.2,0.8l0.5,1.5c0.1,0.1,0.1,0.3,0.1,0.4C9.8,19.5,9.5,20,9,20.2z"/>
		</g>
	</g>
</g>
<g id="tekst">
</g>
</svg>
