<?xml version="1.0" encoding="utf-8"?>
<svg version="1.1"  xmlns="http://www.w3.org/2000/svg" xmlns:xlink="http://www.w3.org/1999/xlink" x="0px" y="0px" width="40px" height="40px"
	 viewBox="0 0 40 40" enable-background="new 0 0 40 40" xml:space="preserve">
<g id="Lag_1">
	<path fill="#000000" d="M38.7,5.8c-0.1-0.1-0.3-0.1-0.4,0l0,0c-0.1,0-6.6,3-11.8,6.5C30,7.1,33,0.6,33.1,0.5l0,0
		c0.1-0.1,0.1-0.3,0-0.4c-0.1-0.1-0.3-0.1-0.4,0l0,0c0,0-2.2,2-5.3,5.5c-3,3.3-4.9,6-5.9,8c-0.1,0-0.2,0-0.3,0
		c-0.9,0.1-1.8,0.3-2.4,0.4c-0.1-0.1-0.1-0.2-0.2-0.3c-0.3-0.3-0.8-0.4-1.2-0.3c0,0-15.7,4.2-15.8,4.2c-1.1,0.3-1.8,1.4-1.5,2.5
		c0.3,1.1,1.4,1.8,2.5,1.5c0,0,15.8-4.2,15.8-4.2c0.3-0.1,0.6-0.3,0.8-0.6c0.1-0.2,0.1-0.3,0.1-0.5c0.4,0,0.9,0,1.5,0.1
		c0.1,0.4,0.3,0.8,0.6,1.1c0.3,0.3,0.7,0.5,1.1,0.6c0.1,0.5,0.1,1,0.1,1.5c-0.2,0-0.4,0.1-0.5,0.1c-0.3,0.2-0.5,0.4-0.6,0.8
		c0,0-4.2,15.7-4.2,15.7c-0.3,1.1,0.4,2.2,1.5,2.5c1.1,0.3,2.2-0.4,2.5-1.5c0,0,4.2-15.7,4.2-15.7c0.1-0.4,0-0.9-0.3-1.2
		c-0.1-0.1-0.2-0.2-0.3-0.2c0.1-0.7,0.3-1.5,0.4-2.5c0-0.1,0-0.2,0-0.3c2-0.9,4.6-2.9,8-5.9c3.5-3.1,5.5-5.3,5.5-5.3l0,0
		C38.8,6,38.8,5.9,38.7,5.8z M22.1,16.7c-0.4-0.4-0.4-1.1,0-1.5c0.4-0.4,1.1-0.4,1.5,0c0.4,0.4,0.4,1.1,0,1.5
		C23.2,17.1,22.5,17.1,22.1,16.7z"/>
</g>
<g id="tekst">
</g>
</svg>
