<?xml version="1.0" encoding="utf-8"?>
<svg version="1.1"  xmlns="http://www.w3.org/2000/svg" xmlns:xlink="http://www.w3.org/1999/xlink" x="0px" y="0px" width="40px" height="40px"
	 viewBox="0 0 40 40" enable-background="new 0 0 40 40" xml:space="preserve">
<g id="Lag_1">
	<g>
		<g>
			<path fill="#395F77" d="M31.6,16.2v-5C31.6,4.9,26.6,0,20.4,0C14.3,0,9.2,5,9.2,11.2v5c-1.9,0.1-3.7,1.6-3.7,3.8v8.8
				c0,6.3,5.1,11.2,11.2,11.2h7.6c6.3,0,11.1-5,11.1-11.2V20C35.4,18,33.7,16.2,31.6,16.2z M20.3,2.3c4.7,0,9.2,4.3,9.2,9v5h-2.5v-5
				c0.1-3.6-3.2-6.6-6.5-6.6c-3.5,0-6.3,3-6.3,6.7v4.9h-2.5v-4.9h0C11.6,6.5,15.5,2.3,20.3,2.3z M25.7,11.2v5H15.5v-5
				c0-2.7,2.2-5,5.1-5C23.4,6.1,25.7,8.4,25.7,11.2z M32.9,28.8c0,4.9-3.9,8.6-8.7,8.6h-7.6c-4.9,0-8.7-3.9-8.7-8.6V20
				c0-0.8,0.5-1.3,1.3-1.3h22.4c0.8,0,1.3,0.5,1.3,1.3V28.8z M17.4,20.5L17.4,20.5L17.4,20.5H9.6v7.8v0c0,4.3,3.5,7.8,7.8,7.8h6
				c4.3,0,7.8-3.5,7.8-7.8v0v-7.8h-7.8H17.4z M22,29.6c-0.2,0.8-0.6,1.6-1.6,1.6c-0.8,0-1.3-0.6-1.6-1.6c-0.6-1.1-0.9-2.5-0.9-3.3
				c0-1.4,1.1-2.5,2.5-2.5c1.3,0,2.5,1.1,2.5,2.5C22.9,26.9,22.3,28.5,22,29.6z"/>
		</g>
	</g>
</g>
<g id="tekst">
</g>
</svg>
