<?xml version="1.0" encoding="utf-8"?>
<svg version="1.1"  xmlns="http://www.w3.org/2000/svg" xmlns:xlink="http://www.w3.org/1999/xlink" x="0px" y="0px" width="40px" height="40px"
	 viewBox="0 0 40 40" enable-background="new 0 0 40 40" xml:space="preserve">
<g id="Lag_1_1_">
	<g>
		<g>
			<path d="M17.9,16.7L17.9,16.7L17.9,16.7C17.8,16.7,17.8,16.7,17.9,16.7c-0.1,0-0.1,0-0.1,0.1l0,0h-0.1l0,0h-0.1l0,0h-0.1l0,0
				h-0.1l0,0l-0.1,0.1l0,0c0,0,0,0-0.1,0l0,0c0,0,0,0-0.1,0l0,0c0,0-0.1,0-0.1,0.1l0,0l0,0l0,0l0,0l0,0l0,0l0,0l0,0l0,0l0,0l0,0l0,0
				l2.1,3.9c0.3-0.2,0.7-0.3,1.1-0.3c0.1,0,0.2,0,0.4,0h0.1c0.1,0,0.1,0,0.2,0.1c0,0,0.1,0,0.1,0.1c0,0,0.1,0,0.1,0.1
				c0,0,0.1,0,0.1,0.1l0,0l0.2-0.3l2-3.6c0,0-1.1-1-3.3-1C19.1,16.3,18.4,16.5,17.9,16.7z M14.3,26.5c0.7,1.2,1.5,1.8,2,2
				c0.3,0.1,0.5,0.2,0.5,0.2l2.3-3.8c0,0-0.1,0-0.1-0.1l0,0c0,0-0.1,0-0.1-0.1l0,0l-0.1-0.1l0,0l-0.1-0.1C18.3,24.1,18,23.6,18,23
				l0,0l-4.5,0.1C13.5,23.1,13.2,24.6,14.3,26.5z M23.4,28.7c0,0,1.5-0.5,2.5-2.3c0.4-0.8,0.6-1.4,0.7-2c0.1-0.8,0-1.3,0-1.3h-0.4
				l-4-0.1l0,0c0,0.6-0.2,1.1-0.6,1.5l0,0c-0.1,0.1-0.3,0.2-0.4,0.3l0,0L23.4,28.7z M19.1,24.2L19.1,24.2
				C19.1,24.2,19.2,24.3,19.1,24.2C19.2,24.3,19.2,24.3,19.1,24.2c0.1,0.1,0.1,0.1,0.1,0.1l0,0l0,0l0,0l0,0c0,0,0,0,0.1,0l0,0
				c0.1,0.1,0.3,0.1,0.5,0.1c0.1,0,0.2,0,0.4,0l0,0c0,0,0,0,0.1,0l0,0l0,0c0,0,0,0,0.1,0l0,0c0,0,0,0,0.1,0l0,0
				c0.1,0,0.2-0.1,0.3-0.1l0,0c0,0,0,0,0.1,0l0,0c0,0,0,0,0.1,0l0,0l0,0l0,0l0,0l0,0l0,0l0,0l0,0l0,0l0,0l0,0l0,0l0,0l0,0l0,0l0,0
				l0,0l0,0l0,0l0,0l0,0c0,0,0,0,0-0.1l0,0c0.1-0.2,0.2-0.4,0.2-0.7c0-0.8-0.7-1.5-1.5-1.5c-0.3,0-0.6,0.1-0.8,0.3l0,0l0,0l0,0l0,0
				l0,0l0,0l0,0l0,0l0,0c-0.1,0.1-0.1,0.1-0.2,0.2l0,0c0,0,0,0,0,0.1l0,0l0,0l0,0l0,0l0,0l0,0l0,0l0,0c-0.1,0.1-0.1,0.3-0.1,0.4
				s0,0.3,0,0.4l0,0c0,0,0,0,0,0.1l0,0l0,0l0,0l0,0c0,0,0,0,0,0.1l0,0c0,0,0,0,0,0.1l0,0c0,0.1,0.1,0.1,0.1,0.2l0,0c0,0,0,0,0,0.1
				l0,0l0,0l0,0l0,0l0,0l0,0l0,0l0,0l0,0l0,0l0,0C19,24.1,19,24.1,19.1,24.2C19,24.2,19,24.2,19.1,24.2L19.1,24.2L19.1,24.2z
				 M39.2,32.2H1c-0.3,0-0.6,0.3-0.6,0.6v1.5c0,0.3,0.3,0.6,0.6,0.6h38.2c0.3,0,0.6-0.3,0.6-0.6v-1.5C39.7,32.4,39.5,32.2,39.2,32.2
				z M1.5,31c0.3,0,0.6-0.2,0.6-0.5v-4.1C2.1,16.3,10.1,8,20.2,8s18.1,8.3,18.1,18.5v4c0,0.3,0.3,0.5,0.6,0.5s0.6-0.2,0.6-0.5v-4
				C39.6,15.8,30.9,7,20.2,7S0.8,15.7,0.8,26.4v4.1C0.8,30.8,1.2,31,1.5,31z M24.3,10c0-0.3-0.3-0.6-0.6-0.6s-0.6,0.3-0.6,0.6
				s0.3,0.6,0.6,0.6S24.3,10.4,24.3,10z M26.3,10c-0.3,0-0.6,0.3-0.6,0.6s0.3,0.6,0.6,0.6s0.6-0.3,0.6-0.6S26.6,10,26.3,10z
				 M27.8,11.9c0,0.3,0.3,0.6,0.6,0.6s0.6-0.3,0.6-0.6s-0.3-0.6-0.6-0.6S27.8,11.5,27.8,11.9z M29.8,13.7c0,0.3,0.3,0.6,0.6,0.6
				S31,14,31,13.7s-0.3-0.6-0.6-0.6S29.8,13.4,29.8,13.7z M19.7,5.7v0.8h1V5.7c0.7-0.2,1.1-0.8,1.1-1.6c0-0.9-0.7-1.7-1.7-1.7
				c-0.9,0-1.7,0.7-1.7,1.7C18.6,4.8,19.1,5.5,19.7,5.7z"/>
		</g>
	</g>
</g>
<g id="tekst">
</g>
</svg>
