<?xml version="1.0" encoding="utf-8"?>
<svg version="1.1"  xmlns="http://www.w3.org/2000/svg" xmlns:xlink="http://www.w3.org/1999/xlink" x="0px" y="0px" width="40px" height="40px"
	 viewBox="0 0 40 40" enable-background="new 0 0 40 40" xml:space="preserve">
<g id="Lag_1">
	<g>
		<g>
			<rect x="7.7" y="0" fill="#FFFFFF" width="6.2" height="2.9"/>
			<path fill="#FFFFFF" d="M13.9,12.3V4.7H7.7v7.6c-2.1,1.4-4.5,3.1-4.5,3.8v21.2c0,1.4,1.1,2.5,2.5,2.5h10.3c1.4,0,2.5-1.1,2.5-2.5
				V16.2C18.4,15.4,16,13.7,13.9,12.3z M10.8,33.2c-2.2,0-4-3-4-6.6c0-3.7,1.8-6.6,4-6.6s4,3,4,6.6C14.8,30.2,13,33.2,10.8,33.2z"/>
			<rect x="27.5" y="5.4" fill="#FFFFFF" width="5.3" height="2.8"/>
			<rect x="30.2" y="21.8" fill="#FFFFFF" width="6.6" height="12.1"/>
			<path fill="#FFFFFF" d="M32.9,16V9.9h-5.3V16c-1.8,1.2-3.9,2.7-3.9,3.3v18.4c0,1.2,1,2.1,2.1,2.1h8.9c1.2,0,2.1-1,2.1-2.1v-2.1
				h-7.5c-0.5,0-0.9-0.4-0.9-0.9V20.9c0-0.5,0.4-0.9,0.9-0.9h7.5v-0.7C36.8,18.7,34.7,17.2,32.9,16z"/>
		</g>
	</g>
</g>
<g id="tekst">
</g>
</svg>
