<?xml version="1.0" encoding="utf-8"?>
<svg version="1.1"  xmlns="http://www.w3.org/2000/svg" xmlns:xlink="http://www.w3.org/1999/xlink" x="0px" y="0px" width="40px" height="40px"
	 viewBox="0 0 40 40" enable-background="new 0 0 40 40" xml:space="preserve">
<g id="Lag_1">
	<path fill="#000000" d="M32.4,0H7.6C3.3,0-0.1,3.4-0.1,7.7v8.1v16.5c0,4.3,3.4,7.7,7.7,7.7h24.8c4.3,0,7.7-3.4,7.7-7.7V15.8V7.9
		C40.1,3.4,36.7,0,32.4,0z M34.5,4.7h0.9v0.9v6h-6.8V4.7H34.5z M14.2,16c1.3-1.7,3.4-3,5.8-3s4.5,1.1,5.8,3c0.9,1.1,1.3,2.6,1.3,4.1
		c0,3.9-3.2,7.1-7.1,7.1s-7.1-3.2-7.1-7.1C12.9,18.6,13.4,17.1,14.2,16z M36.3,32.5c0,2.1-1.7,3.9-3.9,3.9H7.6
		c-2.1,0-3.9-1.7-3.9-3.9V16h6c-0.4,1.3-0.9,2.6-0.9,4.1c0,6,4.9,10.9,10.9,10.9s10.9-4.9,10.9-10.9c0-1.5-0.2-2.8-0.9-4.1h6v16.5
		H36.3z"/>
</g>
<g id="tekst">
</g>
</svg>
