<?xml version="1.0" encoding="utf-8"?>
<svg version="1.1"  xmlns="http://www.w3.org/2000/svg" xmlns:xlink="http://www.w3.org/1999/xlink" x="0px" y="0px" width="40px" height="40px"
	 viewBox="0 0 40 40" enable-background="new 0 0 40 40" xml:space="preserve">
<g id="Lag_1">
	<g>
		<path fill="#000000" d="M20,0C9,0,0,9,0,20s9,20,20,20s20-9,20-20S31,0,20,0z M4.2,20c0-0.5,0-0.8,0-1.3l2.2,3.7l1.8,1L9.8,24
			l0.3,1l0.8,2.9l2.1,1.8l-0.5,1l0.5,2.7l0.3,0.5l-0.2,0.5C7.8,31.8,4.2,26.4,4.2,20z M15.7,35.4l1.6-2.4l0.2-1.1l1.9-1.1L19,29.1
			l1-1.1l-0.3-1.4l-2.6-0.5l-1.8-1.6l-3.8-1.3l-0.3-1L9,21.4L9.1,20l1.6-0.5l1,1l1-0.3l-0.5-1.3l2.7-2.6l-0.2-1.1l1.9-1.1l-0.5-1.8
			l-1.8-0.8L16,9.6l-3-2.1L11.2,7C13,5.8,15,5,17.3,4.6v1.1l2.4,0.8v2.1l1.4,1.6l1.1-1.8l2.1-0.8l0.2-1.6L24,4.8
			c2.2,0.6,4.3,1.6,6.1,3l-2.4,0.5l-1,1.4l0.6,1.8l1-0.6l0.8,0.2l0.6-1l0.5,2.2l-1.4,1.1l-1.4-0.6l-1.6,1.4l-1.3,0.6L24.3,16l0.6,1
			l2.4-1.3l1,0.5l1-0.2l1.1,1.3l2.6,0.3l-0.6,1.6l-2.1,0.3L29,18.4l-1-0.3l-1.1,1.1L25,18.7L24.5,20l0.5,1.3L24.3,23v1.3l0.8,1.3
			l2.1,0.5v1.1l0.6,1l-1,1l-0.3,1.4l0.8,1.8l0.3,1.9c-2.2,1.3-5,2.1-7.7,2.1C18.6,36,17,35.7,15.7,35.4z M25.1,11.8l-1.6,1.3
			L22.9,12l0.6-1.1L25.1,11.8z"/>
	</g>
</g>
<g id="tekst">
</g>
</svg>
