<?xml version="1.0" encoding="utf-8"?>
<svg version="1.1"  xmlns="http://www.w3.org/2000/svg" xmlns:xlink="http://www.w3.org/1999/xlink" x="0px" y="0px" width="40px" height="40px"
	 viewBox="0 0 40 40" enable-background="new 0 0 40 40" xml:space="preserve">
<g id="Lag_1">
	<g>
		<g>
			<path fill="#FFFFFF" d="M14.8,0.5l11.8,1.4H31v32.3h-1.4v2.2h2.9v-0.4v-1.5v-34H14.8z M8.8,36.3l20.1,3.1V3.5L8.8,0.6V36.3z
				 M27.5,21.7c0.4,0.1,0.7,0.5,0.7,0.9c0,0.5-0.3,0.8-0.7,0.7c-0.4-0.1-0.7-0.5-0.7-0.9C26.7,22,27.1,21.7,27.5,21.7z M19.6,5
				l7.2,1v1v0.7v6.5l-7.2-1V5z M19.6,16.1l7.2,1v8.2l-7.2-1V16.1z M19.6,27l7.2,1v8.2l-7.2-1V27z M11,5.1V4.7V3.7l6.5,1v8.2l-6.5-1
				V5.1z M11,14.8l6.5,1V24L11,23V14.8z M11,25.6l6.5,1v8.2l-6.5-1V25.6z"/>
		</g>
	</g>
</g>
<g id="tekst">
</g>
</svg>
