<?xml version="1.0" encoding="utf-8"?>
<svg version="1.1"  xmlns="http://www.w3.org/2000/svg" xmlns:xlink="http://www.w3.org/1999/xlink" x="0px" y="0px" width="40px" height="40px"
	 viewBox="0 0 40 40" enable-background="new 0 0 40 40" xml:space="preserve">
<g id="Lag_1_1_">
	<g id="Nowy_symbol_23_1_">
		<path fill="#000000" d="M8.6,24.5C5.3,18.9,5,13.2,7.7,8.5c2.6-4.6,8.1-7.8,13.3-7.8c5.1,0,10.4,3.1,13.1,7.7
			c2.8,4.7,2.6,10.4-0.5,16.1l-2.2-1.2C34.8,17,33.6,12.4,32,9.6c-2.2-3.8-6.7-6.4-11-6.4S12.1,5.9,9.9,9.8
			c-1.6,2.7-2.7,7.3,0.9,13.4L8.6,24.5z"/>
		<path fill="#000000" d="M11.9,28.6c0.3,1.1-0.4,2.2-1.4,2.5l0,0c-1.1,0.3-2.2-0.4-2.5-1.4l-1.5-5.4c-0.3-1.1,0.4-2.2,1.4-2.5l0,0
			c1.1-0.3,2.2,0.4,2.5,1.4L11.9,28.6z"/>
		<path fill="#000000" d="M34.2,28.7c-0.3,1.1-1.4,1.7-2.5,1.4l0,0c-1.1-0.3-1.7-1.4-1.4-2.5l1.5-5.4c0.3-1.1,1.4-1.7,2.5-1.4l0,0
			c1.1,0.3,1.7,1.4,1.4,2.5L34.2,28.7z"/>
		<path fill="#000000" d="M14,31.2c-1.3,0-2.4-0.9-2.7-2.1l-2.1-7.9c-0.4-1.5,0.5-3,2-3.4c0.2-0.1,0.5-0.1,0.7-0.1
			c1.3,0,2.4,0.9,2.7,2.1l2.1,7.9c0.4,1.5-0.5,3-2,3.4C14.4,31.1,14.2,31.2,14,31.2z"/>
		<path fill="#000000" d="M28.3,30.6c-0.2,0-0.5,0-0.7-0.1c-1.5-0.4-2.4-1.9-2-3.4l2.1-7.9c0.3-1.2,1.4-2.1,2.7-2.1
			c0.2,0,0.5,0,0.7,0.1c1.5,0.4,2.4,1.9,2,3.4L31,28.5C30.7,29.7,29.5,30.6,28.3,30.6z"/>
		<path fill="#000000" d="M22.2,37.9c-10.6,0-18.9-2.9-18.9-6.6c0-1.6,1.4-3,4.2-4.2L7.8,28c-2.3,1-3.5,2.1-3.5,3.3
			c0,2.7,7.2,5.6,17.9,5.6V37.9z"/>
		<path fill="#000000" d="M22.3,37.2c0,0.9-0.3,2.1-1.2,2.1h-2c-0.9,0-1.9-1.1-1.9-2.1V37c0-0.9,1-1.3,1.9-1.3h2
			c0.9,0,1.2,0.4,1.2,1.3V37.2z"/>
	</g>
</g>
</svg>
