<?xml version="1.0" encoding="utf-8"?>
<svg version="1.1"  xmlns="http://www.w3.org/2000/svg" xmlns:xlink="http://www.w3.org/1999/xlink" x="0px" y="0px" width="40px" height="40px"
	 viewBox="0 0 40 40" enable-background="new 0 0 40 40" xml:space="preserve">
<g id="Lag_1_1_">
</g>
<g id="tekst">
	<g id="g29784_1_" transform="matrix(0.91119295,0,0,0.91119295,3296.6181,-11594.85)">
		<g id="g28250-8_1_" transform="matrix(0.70710678,0.70710678,-0.70710678,0.70710678,8201.4143,9921.3544)">
			<path id="path7805-6-7-9_1_" d="M-6335.8,10350.8c-0.5,0-1,0.5-1.1,1c0,0.3,0,0.5,0,0.8c0.2,0.3,0.3,0.5,0.5,0.7
				c0.5,0.3,0.8,0.8,1.1,1.3l0,0l0,0c0.5,1,0.3,2.3-0.3,3.3c-0.7,1-1.6,1.6-2.8,1.8c-0.5,0-1,0.2-1.3,0.7c-0.2,0.2-0.3,0.3-0.3,0.5
				c0,0,0,0,0,0.2c-1.1,2.1-4.4,2.6-6.4,1.1l0,0c-0.2-0.2-0.2-0.2,0,0l0,0c0,0,0,0-0.2,0c-0.3-0.2-0.5-0.5-0.8-0.8
				c-0.2-0.3-0.5-0.7-0.7-1c-0.2-0.2-0.5-0.3-0.8-0.3c-1.3,0-2.6-0.7-3.3-1.8l0,0c-0.2-0.2-0.2-0.2,0,0l0,0l0,0l0,0l0,0
				c-1-1.5-0.3-3.6,1-4.8c0.3-0.2,0.5-0.5,0.5-0.8s0-0.7-0.3-1c-0.2-0.3-0.5-0.5-0.8-0.5s-0.7,0.2-1,0.3c-2.1,1.8-3.3,5.3-1.5,8l0,0
				c0.2,0.2,0.2,0.2,0,0c0,0,0,0,0,0.2l0,0c1,1.6,2.8,2.6,4.6,3c0,0.2,0.2,0.2,0.2,0.2c0.2,0.3,0.7,1,1.3,1.5l0,0l0,0
				c0.2,0.2,0.2,0.2,0.2,0l0,0l0,0c3.1,2.5,8,1.8,10.2-1.8l0,0c2-0.2,3.6-1.3,4.6-3c1-1.6,1.5-3.8,0.5-5.7l0,0l0,0l0,0l0,0l0,0l0,0
				c-0.3-0.7-1-1.6-2-2.3C-6335.2,10350.8-6335.5,10350.8-6335.8,10350.8L-6335.8,10350.8z M-6339.8,10360.4L-6339.8,10360.4
				L-6339.8,10360.4z"/>
			<path id="path28232-5_1_" d="M-6341.7,10346.6c-0.7,0-1.3,0.5-1.3,1.3c-0.2,2.8,0.5,5.1,1.3,6.6s1.6,2.3,1.6,2.3
				c0.5,0.5,1.3,0.5,1.8,0s0.5-1.3,0-1.8l0,0c0,0-0.5-0.5-1.1-1.6c-0.5-1.1-1.1-2.8-1-5.3
				C-6340.4,10347.3-6341.1,10346.6-6341.7,10346.6L-6341.7,10346.6z"/>
			<path id="path28234-5_1_" d="M-6345.8,10346.6c-0.7,0-1.3,0.7-1.1,1.3c0.2,2.3-0.5,4.1-1,5.3c-0.5,1.1-1.1,1.6-1.1,1.6
				c-0.5,0.5-0.5,1.3,0,1.8s1.3,0.5,1.8,0l0,0c0,0,0.8-0.8,1.6-2.3c0.8-1.5,1.5-3.6,1.3-6.6
				C-6344.5,10347.1-6345.2,10346.5-6345.8,10346.6L-6345.8,10346.6z"/>
		</g>
		<path id="path9-2-5-3-5_1_" d="M-3577.7,12726l-30.7,11.8c-2.1,0.8-2.1,2-0.3,2.5l7.7,2.5l3,9c0.3,1,0.2,1.3,1.1,1.3
			c0.8,0,1.1-0.3,1.6-0.8c0.3-0.3,2-2,3.8-3.8l7.9,5.9c1.5,0.8,2.5,0.3,3-1.3l5.3-24.6C-3575,12726.3-3576.4,12725.3-3577.7,12726
			L-3577.7,12726z M-3600,12742.1l17.2-10.8c0.8-0.5,1.6-0.2,1,0.3l-14.8,13.3l-0.7,6.1L-3600,12742.1L-3600,12742.1z"/>
	</g>
</g>
</svg>
