<?xml version="1.0" encoding="utf-8"?>
<svg version="1.1"  xmlns="http://www.w3.org/2000/svg" xmlns:xlink="http://www.w3.org/1999/xlink" x="0px" y="0px" width="40px" height="40px"
	 viewBox="0 0 40 40" enable-background="new 0 0 40 40" xml:space="preserve">
<g id="Lag_1">
	<g>
		<path fill="#FFFFFF" d="M37.8,9.6H2.2c-1,0-1.9,0.9-1.9,1.9v24.7c0,1,0.9,1.9,1.9,1.9h35.6c1,0,1.9-0.9,1.9-1.9V11.5
			C39.6,10.5,38.9,9.6,37.8,9.6z M15.2,11.4c0-0.3,0.3-0.6,0.7-0.6h8.2c0.4,0,0.7,0.3,0.7,0.6v1.2c0,0.3-0.3,0.6-0.7,0.6h-8.2
			c-0.4,0-0.7-0.3-0.7-0.6V11.4z M36.5,34.9H3.9V15.5h32.6V34.9z"/>
		<g>
			<path fill="#FFFFFF" d="M11.6,33.4h-0.4l-1-2.8l0.9-3.7l-1-1.6c0,0-1.2,0.9-1.2,1l0,0c-3,0.6-3.4,1.2-3.4,2.4l-0.9,4.8L11.6,33.4
				"/>
			<path fill="#FFFFFF" d="M11.6,33.4H18l-0.3-4.8c0-1.2-1.3-2.1-3-2.5L13,25.4c0-0.1-0.1-0.3-0.1-0.4v-0.1c0.7-0.6,1.2-1.6,1.3-3
				l0,0c0.3-2.4,1.3-4.3,0.3-4.5c-0.3,0-0.4,0-0.6,0.3c0-0.6-1.8-0.9-3-0.4c-0.9,0.3-1.6-0.9-2.7-0.6s-1.6,1.9-0.6,3.1
				c0.3,0.4,0.1,0.3,0.6,2.1l0,0c0.1,1.2,0.6,2.2,1.3,3v0.1c0,0.1,0,0.3-0.1,0.4l1.6,0.9l1.6-0.9L11.2,27l0.9,3.6l-0.7,2.8H11.6"/>
		</g>
		<g>
			<path fill="#FFFFFF" d="M23.8,9V1.1c0-0.3-0.3-0.6-0.6-0.6h-6.4c-0.3,0-0.6,0.3-0.6,0.6V9H23.8z M20,1.8c1.2,0,2.2,1,2.2,2.2
				s-1,2.2-2.2,2.2s-2.2-1-2.2-2.2S18.8,1.8,20,1.8z"/>
		</g>
		<g>
			<path fill="#FFFFFF" d="M16.1,11.7v0.1c0,0.3,0.3,0.6,0.6,0.6h6.4c0.3,0,0.6-0.3,0.6-0.6v-0.1H16.1z"/>
		</g>
		
			<line fill="none" stroke="#FFFFFF" stroke-width="0.8255" stroke-linecap="round" stroke-miterlimit="10" x1="22" y1="19.3" x2="34" y2="19.3"/>
		
			<line fill="none" stroke="#FFFFFF" stroke-width="0.8255" stroke-linecap="round" stroke-miterlimit="10" x1="22" y1="23.7" x2="34" y2="23.7"/>
		
			<line fill="none" stroke="#FFFFFF" stroke-width="0.8255" stroke-linecap="round" stroke-miterlimit="10" x1="22" y1="28.2" x2="34" y2="28.2"/>
	</g>
</g>
<g id="tekst">
</g>
</svg>
