<?xml version="1.0" encoding="utf-8"?>
<svg version="1.1"  xmlns="http://www.w3.org/2000/svg" xmlns:xlink="http://www.w3.org/1999/xlink" x="0px" y="0px" width="40px" height="40px"
	 viewBox="0 0 40 40" enable-background="new 0 0 40 40" xml:space="preserve">
<g id="Lag_1">
	<g>
		<g>
			<path fill="#000000" d="M21.3,15.1c-0.4-0.4-1-0.4-1.4,0L6.7,28.3C6,29,6,30.2,6.7,30.9c0.7,0.7,1.8,0.7,2.5,0
				c3.8-3.8,7.6-7.6,11.3-11.3c3.8,3.8,7.6,7.6,11.3,11.3c0.7,0.7,1.8,0.7,2.5,0c0.7-0.7,0.7-1.8,0-2.5L21.3,15.1z M11.5,3.3
				c0.1,0.1,0.2,0.2,0.3,0.3l0,0c0.1,0,0.1,0.1,0.2,0.1l0,0c0,0,0,0,0,0c0,0,0,0,0,0v0c0.1,0,0.2,0.1,0.2,0.1l0,0c0.1,0,0.3,0,0.4,0
				l0,0c0.4-0.1,0.6-0.5,0.7-0.8c0.1-0.3,0.1-0.7,0.1-1c0-0.3,0-0.7,0-0.9c0-0.3,0-0.4-0.1-0.4c0-0.2-0.2-0.4-0.4-0.4
				c-0.1,0-0.2,0-0.3,0.1c0,0-0.1,0.1-0.3,0.3S12.1,1,11.9,1.3s-0.4,0.6-0.5,0.9S11.3,3,11.5,3.3L11.5,3.3z M20.7,3.3
				c0.1,0.1,0.2,0.2,0.3,0.3c0,0,0,0,0,0c0.1,0,0.1,0.1,0.2,0.1l0,0c0,0,0,0,0,0c0,0,0,0,0,0v0c0.1,0,0.2,0.1,0.2,0.1l0,0
				c0.1,0,0.3,0,0.4,0l0,0c0.4-0.1,0.6-0.5,0.7-0.8s0.1-0.7,0.1-1c0-0.3,0-0.7,0-0.9c0-0.3,0-0.4-0.1-0.4c0-0.2-0.2-0.4-0.4-0.4
				c-0.1,0-0.2,0-0.3,0.1c0,0-0.1,0.1-0.3,0.3c-0.2,0.2-0.4,0.4-0.6,0.7s-0.4,0.6-0.5,0.9S20.4,3,20.7,3.3L20.7,3.3z M29.8,3.3
				c0.1,0.1,0.2,0.2,0.3,0.3l0,0c0.1,0,0.1,0.1,0.2,0.1l0,0c0,0,0,0,0,0c0,0,0,0,0,0v0c0.1,0,0.2,0.1,0.2,0.1l0,0c0.1,0,0.3,0,0.4,0
				l0,0c0.4-0.1,0.6-0.5,0.7-0.8c0.1-0.3,0.1-0.7,0.1-1c0-0.3,0-0.7,0-0.9c0-0.3,0-0.4-0.1-0.4c0-0.2-0.2-0.4-0.4-0.4
				c-0.1,0-0.2,0-0.3,0.1c0,0-0.1,0.1-0.3,0.3c-0.2,0.2-0.4,0.4-0.6,0.7c-0.2,0.3-0.4,0.6-0.5,0.9S29.6,3,29.8,3.3L29.8,3.3z
				 M15.1,10.1c0.1,0.1,0.2,0.2,0.3,0.3l0,0c0.1,0,0.1,0.1,0.2,0.1l0,0c0,0,0,0,0,0c0,0,0,0,0,0v0c0.1,0,0.2,0.1,0.2,0.1l0,0
				c0.1,0,0.3,0,0.4,0l0,0c0.4-0.1,0.6-0.5,0.7-0.8c0.1-0.3,0.1-0.7,0.1-1s0-0.7,0-0.9c0-0.3,0-0.4-0.1-0.4C17,7.1,16.8,7,16.6,7
				c-0.1,0-0.2,0-0.3,0.1c0,0-0.1,0.1-0.3,0.3c-0.2,0.2-0.4,0.4-0.6,0.7C15.3,8.3,15.1,8.7,15,9C14.9,9.3,14.8,9.7,15.1,10.1
				L15.1,10.1z M24.2,10.1c0.1,0.1,0.2,0.2,0.3,0.3c0,0,0,0,0,0c0.1,0,0.1,0.1,0.2,0.1l0,0c0,0,0,0,0,0c0,0,0,0,0,0v0
				c0.1,0,0.2,0.1,0.2,0.1l0,0c0.1,0,0.3,0,0.4,0l0,0c0.4-0.1,0.6-0.5,0.7-0.8c0.1-0.3,0.1-0.7,0.1-1s0-0.7,0-0.9
				c0-0.3,0-0.4-0.1-0.4C26.2,7.1,26,7,25.8,7c-0.1,0-0.2,0-0.3,0.1c0,0-0.1,0.1-0.3,0.3c-0.2,0.2-0.4,0.4-0.6,0.7
				c-0.2,0.3-0.4,0.6-0.5,0.9C24,9.3,24,9.7,24.2,10.1L24.2,10.1z M35.4,7.3c0-0.2-0.2-0.4-0.4-0.4c-0.1,0-0.2,0-0.3,0.1
				c0,0-0.1,0.1-0.3,0.3S34,7.8,33.8,8.1c-0.2,0.3-0.4,0.6-0.5,0.9c-0.1,0.3-0.1,0.7,0.1,1.1l0,0c0.1,0.1,0.2,0.2,0.3,0.3
				c0,0,0,0,0,0c0.1,0,0.1,0.1,0.2,0.1l0,0c0,0,0,0,0,0c0,0,0,0,0,0v0c0.1,0,0.2,0.1,0.2,0.1l0,0c0.1,0,0.3,0,0.4,0l0,0
				c0.4-0.1,0.6-0.5,0.7-0.8c0.1-0.3,0.1-0.7,0.1-1s0-0.7,0-0.9C35.4,7.5,35.4,7.4,35.4,7.3z M6.4,10.5L6.4,10.5
				C6.4,10.5,6.4,10.5,6.4,10.5C6.4,10.5,6.5,10.5,6.4,10.5L6.4,10.5c0.1,0.1,0.2,0.1,0.3,0.1l0,0c0.1,0,0.3,0,0.4,0l0,0
				c0.4-0.1,0.6-0.5,0.7-0.8C8,9.4,8,9,8,8.7s0-0.7,0-0.9s0-0.4-0.1-0.4C7.8,7.1,7.7,7,7.5,7C7.3,7,7.2,7,7.2,7.1
				c0,0-0.1,0.1-0.3,0.3C6.7,7.6,6.5,7.8,6.3,8.1C6.1,8.3,5.9,8.7,5.8,9c-0.1,0.3-0.1,0.7,0.1,1.1l0,0c0.1,0.1,0.2,0.2,0.3,0.3l0,0
				C6.3,10.4,6.3,10.4,6.4,10.5z M10,17.1c0.1,0.1,0.2,0.2,0.3,0.3l0,0c0.1,0,0.1,0.1,0.2,0.1l0,0c0,0,0,0,0,0c0,0,0,0,0,0v0
				c0.1,0,0.2,0.1,0.2,0.1l0,0c0.1,0,0.3,0,0.4,0l0,0c0.4-0.1,0.6-0.5,0.7-0.8c0.1-0.3,0.1-0.7,0.1-1s0-0.7,0-0.9s0-0.4-0.1-0.4
				c0-0.2-0.2-0.4-0.4-0.4c-0.1,0-0.2,0-0.3,0.1c0,0-0.1,0.1-0.3,0.3c-0.2,0.2-0.4,0.4-0.6,0.7c-0.2,0.3-0.4,0.6-0.5,0.9
				C9.8,16.3,9.8,16.7,10,17.1L10,17.1z M28.3,17.1c0.1,0.1,0.2,0.2,0.3,0.3l0,0c0.1,0,0.1,0.1,0.2,0.1l0,0c0,0,0,0,0,0c0,0,0,0,0,0
				v0c0.1,0,0.2,0.1,0.2,0.1l0,0c0.1,0,0.3,0,0.4,0l0,0c0.4-0.1,0.6-0.5,0.7-0.8c0.1-0.3,0.1-0.7,0.1-1s0-0.7,0-0.9s0-0.4-0.1-0.4
				c0-0.2-0.2-0.4-0.4-0.4c-0.1,0-0.2,0-0.3,0.1c0,0-0.1,0.1-0.3,0.3c-0.2,0.2-0.4,0.4-0.6,0.7c-0.2,0.3-0.4,0.6-0.5,0.9
				C28.1,16.3,28.1,16.7,28.3,17.1L28.3,17.1z M39.5,14.8c0-0.3,0-0.4-0.1-0.4c0-0.2-0.2-0.4-0.4-0.4c-0.1,0-0.2,0-0.3,0.1
				c0,0-0.1,0.1-0.3,0.3c-0.2,0.2-0.4,0.4-0.6,0.7c-0.2,0.3-0.4,0.6-0.5,0.9c-0.1,0.3-0.1,0.7,0.1,1.1l0,0c0.1,0.1,0.2,0.2,0.3,0.3
				c0,0,0,0,0,0c0.1,0,0.1,0.1,0.2,0.1l0,0c0,0,0,0,0,0c0,0,0,0,0,0v0c0.1,0,0.2,0.1,0.2,0.1l0,0c0.1,0,0.3,0,0.4,0l0,0
				c0.4-0.1,0.6-0.5,0.7-0.8c0.1-0.3,0.1-0.7,0.1-1S39.6,15,39.5,14.8z M2.8,14.3c0-0.2-0.2-0.4-0.4-0.4c-0.1,0-0.2,0-0.3,0.1
				c0,0-0.1,0.1-0.3,0.3c-0.2,0.2-0.4,0.4-0.6,0.7C1,15.4,0.9,15.7,0.7,16c-0.1,0.3-0.1,0.7,0.1,1.1l0,0c0.1,0.1,0.2,0.2,0.3,0.3
				l0,0c0.1,0,0.1,0.1,0.2,0.1l0,0c0,0,0,0,0,0c0,0,0,0,0,0v0c0.1,0,0.2,0.1,0.2,0.1l0,0c0.1,0,0.3,0,0.4,0l0,0
				c0.4-0.1,0.6-0.5,0.7-0.8c0.1-0.3,0.1-0.7,0.1-1s0-0.7,0-0.9S2.8,14.4,2.8,14.3z M9.5,32.1v3.1l22.4,4.8v-7.8L20.7,20.9L9.5,32.1
				z M23.8,29.9c0,1.7-1.4,3.1-3.1,3.1c-1.7,0-3.1-1.4-3.1-3.1c0-1.7,1.4-3.1,3.1-3.1C22.4,26.8,23.8,28.2,23.8,29.9z"/>
		</g>
	</g>
</g>
<g id="tekst">
</g>
</svg>
