<?xml version="1.0" encoding="utf-8"?>
<svg version="1.1"  xmlns="http://www.w3.org/2000/svg" xmlns:xlink="http://www.w3.org/1999/xlink" x="0px" y="0px" width="40px" height="40px"
	 viewBox="0 0 40 40" enable-background="new 0 0 40 40" xml:space="preserve">
<g id="Lag_1">
	<g>
		<path fill="#000000" d="M18.2,25.7h10.5c0,0,0,0,0,0c0.4,0,0.7-0.3,0.7-0.7c0-0.4-0.3-0.7-0.7-0.7H18.2c-0.4,0-0.7,0.3-0.7,0.7
			c0,0.1,0,0.1,0,0.2C17.6,25.5,17.9,25.7,18.2,25.7z"/>
		<path fill="#000000" d="M36.5,14.3h-20c-1.7,0-3,1.3-3,3l1,0h-1l0,3.1v1.6l0,4.7v2.1c0,0.1,0,0.1,0,0.2c0,0,0,0,0,0
			c0,1.6,1.4,2.9,3,2.9h20c1.7,0,3-1.3,3-3V17.3C39.5,15.6,38.2,14.3,36.5,14.3z M37.5,28.8c0,0.5-0.4,0.9-0.9,0.9h-20
			c-0.5,0-0.9-0.4-0.9-0.9v-3.1l0-3.5h21.9L37.5,28.8L37.5,28.8z M37.5,18.6H15.6v-1.3c0-0.5,0.4-0.9,0.9-0.9h20
			c0.5,0,0.9,0.4,0.9,0.9V18.6z"/>
		<path fill="#000000" d="M27.2,12.6l-2.1-5.7c-0.4-1.2-1.6-2-2.8-2c-0.3,0-0.7,0.1-1,0.2L2.4,11.9c-1.2,0.4-2,1.6-2,2.8
			c0,0.3,0.1,0.7,0.2,1v0l4,10.9c0.4,1.2,1.6,2,2.8,2c0.3,0,0.7-0.1,1-0.2l3.5-1.3l0-4.7L8,23.9c-0.1,0-0.2,0-0.2,0
			c-0.3,0-0.6-0.2-0.7-0.5c-0.1-0.4,0.1-0.8,0.4-0.9l4.4-1.6l0-3.7c0,0,0-0.1,0-0.1c0.1-2.5,2.1-4.5,4.6-4.5L27.2,12.6L27.2,12.6z
			 M9.2,19L7,19.7c-0.1,0-0.3,0.1-0.4,0.1c-0.5,0-1-0.3-1.1-0.8L5,17.6c-0.1-0.1-0.1-0.3-0.1-0.4c0-0.5,0.3-1,0.8-1.1l2.2-0.8
			c0.1,0,0.3-0.1,0.4-0.1c0.5,0,1,0.3,1.1,0.8l0.5,1.5c0.1,0.1,0.1,0.3,0.1,0.4C10,18.3,9.7,18.8,9.2,19z"/>
	</g>
</g>
<g id="tekst">
</g>
</svg>
