<?xml version="1.0" encoding="utf-8"?>
<svg version="1.1"  xmlns="http://www.w3.org/2000/svg" xmlns:xlink="http://www.w3.org/1999/xlink" x="0px" y="0px" width="40px" height="40px"
	 viewBox="0 0 40 40" enable-background="new 0 0 40 40" xml:space="preserve">
<g id="Lag_1_1_">
	<g>
		<g>
			<path d="M24.8,14c0.1,0.1,0.3,0.2,0.5,0.2s0.4-0.1,0.6-0.2c0.3-0.3,0.2-0.7-0.1-1c-0.1-0.1-2.7-2.2-0.5-5.1
				C28,4.3,26.9,2.7,25.6,1l-0.2-0.2c-0.2-0.3-0.7-0.4-1-0.2c-0.4,0.2-0.4,0.6-0.2,1l0.2,0.2c1.1,1.5,1.8,2.5-0.4,5.4
				C21.7,10.2,23.5,12.9,24.8,14z M19.1,14c0.1,0.1,0.3,0.2,0.5,0.2s0.4-0.1,0.6-0.2c0.3-0.3,0.2-0.7-0.1-1
				c-0.1-0.1-2.7-2.2-0.5-5.1C22.4,4.3,21.2,2.7,20,1l-0.2-0.2c-0.2-0.3-0.7-0.4-1-0.2s-0.4,0.6-0.2,1l0.2,0.2
				c1.1,1.5,1.8,2.5-0.4,5.4C15.9,10.2,17.8,12.9,19.1,14z M36.2,20.8h-1.9v-0.3c0-1.6-1.8-2.5-2.9-2.5h-0.6c-1.2,0-2.1,0.9-2.1,2.5
				v0.3h-0.9v-0.3c0-1.6-1.2-2.5-2.4-2.5h-0.6c-1.2,0-1.7,0.9-1.7,2.5v0.3h-0.9v-0.3c0-1.6-1.5-2.5-2.7-2.5H19
				c-1.2,0-1.4,0.9-1.4,2.5v0.3h-1.9v-0.3c0-1.6-1-2.5-2.1-2.5H13c-1.2,0-1.9,0.9-1.9,2.5v0.3h-0.9v-0.3c0-1.6-1.3-2.5-2.5-2.5H7.1
				c-1.2,0-1.6,0.9-1.6,2.5v0.3H2.2c-0.6,0-0.4,0.7-0.4,1.3v0.3c0,0.6-0.2,1.2,0.4,1.2h3.3v12.8c0,1.6,0.4,3,1.6,3h0.6
				c1.2,0,2.5-1.4,2.5-3V23.6h0.9v12.8c0,1.6,0.8,3,1.9,3h0.6c1.2,0,2.1-1.4,2.1-3V23.6h1.9v12.8c0,1.6,0.2,3,1.4,3h0.6
				c1.2,0,2.7-1.4,2.7-3V23.6h0.9v12.8c0,1.6,0.5,3,1.7,3h0.6c1.2,0,2.4-1.4,2.4-3V23.6h0.9v12.8c0,1.6,0.9,3,2.1,3h0.6
				c1.2,0,2.9-1.4,2.9-3V23.6h1.9c0.6,0,1.9-0.6,1.9-1.2v-0.3C38,21.5,36.7,20.8,36.2,20.8z M13.4,14c0.1,0.1,0.3,0.2,0.5,0.2
				s0.4-0.1,0.6-0.2c0.3-0.3,0.2-0.7-0.1-1c-0.1-0.1-2.7-2.2-0.5-5.1c2.8-3.6,1.6-5.2,0.4-6.9l-0.2-0.2c-0.2-0.3-0.7-0.4-1-0.2
				c-0.4,0.2-0.4,0.6-0.2,1L13,1.7c1.1,1.5,1.8,2.5-0.4,5.4C10.2,10.2,12.1,12.9,13.4,14z"/>
		</g>
	</g>
</g>
<g id="tekst">
</g>
</svg>
