<?xml version="1.0" encoding="utf-8"?>
<svg version="1.1"  xmlns="http://www.w3.org/2000/svg" xmlns:xlink="http://www.w3.org/1999/xlink" x="0px" y="0px" width="40px" height="40px"
	 viewBox="0 0 40 40" enable-background="new 0 0 40 40" xml:space="preserve">
<g id="Lag_1">
	<path fill="#FFFFFF" d="M25.3,1.5C15-1.4,4.3,4.5,1.4,14.7s3,20.9,13.2,23.9c10.2,2.9,20.9-3,23.9-13.2S35.5,4.4,25.3,1.5z
		 M37.3,19.1l-6.4,0.3c-0.2-3.4-1.9-6.5-4.7-8.5l3.7-5.2C34.3,8.9,37,13.8,37.3,19.1z M17.5,28.5c-4.7-1.3-7.4-6.3-6.1-10.9
		s6.3-7.4,10.9-6.1s7.4,6.3,6.1,10.9S22.2,29.9,17.5,28.5z M19,2.7L19.4,9c-3.4,0.2-6.5,1.9-8.5,4.7l-5.2-3.7
		C8.8,5.7,13.7,2.9,19,2.7z M2.6,20.9l6.4-0.3c0.2,3.4,1.9,6.5,4.7,8.5L10,34.3C5.6,31.2,2.8,26.3,2.6,20.9z M20.8,37.4L20.5,31
		c3.4-0.2,6.5-1.9,8.5-4.7l5.2,3.7C31.1,34.4,26.2,37.1,20.8,37.4z"/>
</g>
<g id="tekst">
</g>
</svg>
