<?xml version="1.0" encoding="utf-8"?>
<!-- Generator: Adobe Illustrator 18.0.0, SVG Export Plug-In . SVG Version: 6.00 Build 0)  -->
<!DOCTYPE svg PUBLIC "-//W3C//DTD SVG 1.1//EN" "http://www.w3.org/Graphics/SVG/1.1/DTD/svg11.dtd" [
	<!ENTITY ns_extend "http://ns.adobe.com/Extensibility/1.0/">
	<!ENTITY ns_ai "http://ns.adobe.com/AdobeIllustrator/10.0/">
	<!ENTITY ns_graphs "http://ns.adobe.com/Graphs/1.0/">
	<!ENTITY ns_vars "http://ns.adobe.com/Variables/1.0/">
	<!ENTITY ns_imrep "http://ns.adobe.com/ImageReplacement/1.0/">
	<!ENTITY ns_sfw "http://ns.adobe.com/SaveForWeb/1.0/">
	<!ENTITY ns_custom "http://ns.adobe.com/GenericCustomNamespace/1.0/">
	<!ENTITY ns_adobe_xpath "http://ns.adobe.com/XPath/1.0/">
]>
<svg version="1.1" id="Lag_1" xmlns:x="&ns_extend;" xmlns:i="&ns_ai;" xmlns:graph="&ns_graphs;"
	 xmlns="http://www.w3.org/2000/svg" xmlns:xlink="http://www.w3.org/1999/xlink" x="0px" y="0px" width="41.9px" height="40.8px"
	 viewBox="0 0 41.9 40.8" enable-background="new 0 0 41.9 40.8" xml:space="preserve">
<metadata>
	<sfw  xmlns="&ns_sfw;">
		<slices></slices>
		<sliceSourceBounds  width="40" height="33" y="10" x="5.9" bottomLeftOrigin="true"></sliceSourceBounds>
		<optimizationSettings>
			<targetSettings  fileFormat="PNG24Format" targetSettingsID="0">
				<PNG24Format  transparency="true" filtered="false" interlaced="false" noMatteColor="false" matteColor="#FFFFFF">
					</PNG24Format>
			</targetSettings>
		</optimizationSettings>
	</sfw>
</metadata>
<g>
	<g>
		<path fill="#FFFFFF" d="M21.1,17.7h-1.3v4h0.9c0.9,0,1.5-0.2,2-0.5c0.4-0.3,0.7-0.9,0.7-1.5c0-0.7-0.2-1.2-0.5-1.5
			C22.5,17.9,21.9,17.7,21.1,17.7z M40.9,17c0-0.4-0.1-0.6-0.1-0.6c0,0,0,0.2,0,0.6c0,0.6-0.1,1.3-0.4,1.8c-0.1,0.3-0.4,0.5-0.6,0.7
			c0.2-0.3,0.2-0.7,0.3-1.1c0-0.4,0-0.9-0.2-1.3c-0.2-0.4-0.6-0.9-1.1-1.1c-0.5-0.2-1.1-0.1-1.5,0.3l-0.1,0.1l0,0l0,0l0,0
			c0,0-0.1,0.1-0.1,0.1c-0.1,0.1-0.2,0.2-0.2,0.3c-0.1,0.2-0.2,0.4-0.2,0.6c-0.1,0.4,0,0.8,0.1,1.2c0.1,0.3,0.2,0.6,0.4,0.8
			c-0.1,0-0.3,0.1-0.4,0.1c-0.8-7.3-7.8-12.9-16.2-12.9c-2.1,0-4,0.3-5.9,1C11.4,5.8,7.8,5,7.8,5C7.1,4.9,6.7,5.3,6.9,6l1.5,5.3
			c-1.7,1.6-2.9,3.5-3.7,5.6c0,0-0.1,0-0.1,0l-2.5,0.3c-0.7,0.1-1.2,0.7-1.2,1.4v5c0,0.7,0.6,1.3,1.2,1.4l2.5,0.3c0,0,0.1,0,0.1,0
			c0.8,2.2,2.1,4.2,3.9,5.8L8,36.7C7.9,37.4,8.4,38,9,38h5.6c0.7,0,1.3-0.6,1.4-1.3l0.2-1.7c1.3,0.3,2.6,0.4,4,0.4
			c1.9,0,3.8-0.3,5.5-0.8l0.3,2.1c0.1,0.7,0.7,1.3,1.4,1.3h5.6c0.7,0,1.2-0.6,1.1-1.3l-0.9-7c1.9-2.2,3.1-5,3.3-7.9
			c0.1,0,0.2,0,0.3-0.1c0.7-0.2,1.4-0.5,2-1.1c0.1-0.1,0.2-0.2,0.3-0.3c0,0,0.1,0,0.1,0c0.4-0.1,0.7-0.3,1-0.6
			c0.2-0.3,0.4-0.6,0.6-0.9C41,18.3,41,17.6,40.9,17z M10.3,16.2c-0.9,0-1.6-0.7-1.6-1.6c0-0.9,0.7-1.6,1.6-1.6s1.6,0.7,1.6,1.6
			C11.9,15.5,11.2,16.2,10.3,16.2z M16.6,9.9c-0.2-0.3,0-0.7,0.3-0.8C17,8.9,18,8.5,20.9,8.5c2.6,0,4,0.7,4.1,0.7
			c0.3,0.2,0.4,0.5,0.3,0.8c-0.1,0.2-0.3,0.3-0.6,0.3c-0.1,0-0.2,0-0.3-0.1c0,0-1.2-0.6-3.5-0.6c-2.6,0-3.5,0.4-3.5,0.4
			C17.1,10.3,16.8,10.2,16.6,9.9z M24.9,22.9C24,23.7,22.7,24,21.1,24h-1.2v4.8H17V15.4h4.2c1.6,0,2.9,0.3,3.7,1
			c0.8,0.7,1.3,1.7,1.3,3.1C26.2,21,25.8,22.1,24.9,22.9z M38.3,18.2c-0.1,0.4-0.3,0.6-0.6,0.8c-0.2-0.4-0.3-0.9-0.2-1.3
			c0-0.1,0.1-0.2,0.1-0.2c0,0,0.1-0.1,0.1-0.1c0,0,0,0,0,0l0,0l0,0c0,0,0,0,0,0l0,0l0,0c0.1-0.1,0.2,0,0.3,0c0.1,0,0.1,0.1,0.2,0.3
			C38.4,17.8,38.4,18,38.3,18.2z"/>
	</g>
</g>
</svg>
