<?xml version="1.0" encoding="utf-8"?>
<!-- Generator: Adobe Illustrator 18.0.0, SVG Export Plug-In . SVG Version: 6.00 Build 0)  -->
<!DOCTYPE svg PUBLIC "-//W3C//DTD SVG 1.1//EN" "http://www.w3.org/Graphics/SVG/1.1/DTD/svg11.dtd" [
	<!ENTITY ns_extend "http://ns.adobe.com/Extensibility/1.0/">
	<!ENTITY ns_ai "http://ns.adobe.com/AdobeIllustrator/10.0/">
	<!ENTITY ns_graphs "http://ns.adobe.com/Graphs/1.0/">
	<!ENTITY ns_vars "http://ns.adobe.com/Variables/1.0/">
	<!ENTITY ns_imrep "http://ns.adobe.com/ImageReplacement/1.0/">
	<!ENTITY ns_sfw "http://ns.adobe.com/SaveForWeb/1.0/">
	<!ENTITY ns_custom "http://ns.adobe.com/GenericCustomNamespace/1.0/">
	<!ENTITY ns_adobe_xpath "http://ns.adobe.com/XPath/1.0/">
]>
<svg version="1.1" id="Lag_1" xmlns:x="&ns_extend;" xmlns:i="&ns_ai;" xmlns:graph="&ns_graphs;"
	 xmlns="http://www.w3.org/2000/svg" xmlns:xlink="http://www.w3.org/1999/xlink" x="0px" y="0px" width="33.7px" height="31.3px"
	 viewBox="0 0 33.7 31.3" enable-background="new 0 0 33.7 31.3" xml:space="preserve">
<metadata>
	<sfw  xmlns="&ns_sfw;">
		<slices></slices>
		<sliceSourceBounds  width="28" height="27" y="14.7" x="11.3" bottomLeftOrigin="true"></sliceSourceBounds>
		<optimizationSettings>
			<targetSettings  fileFormat="PNG24Format" targetSettingsID="0">
				<PNG24Format  transparency="true" filtered="false" interlaced="false" noMatteColor="false" matteColor="#FFFFFF">
					</PNG24Format>
			</targetSettings>
		</optimizationSettings>
	</sfw>
</metadata>
<g>
	<g>
		<polygon fill="#395F77" points="28.3,19.3 28.3,27.3 4.3,27.3 4.3,4.3 13.3,4.3 13.3,2.3 2.3,2.3 2.3,29.3 30.3,29.3 30.3,19.3 		
			"/>
		<path fill="#395F77" d="M15.3,2.3v15h15v-15C30.3,2.3,15.3,2.3,15.3,2.3z M27.3,11.9l-1.8,1.8L23,11.2l-2.5,2.5l-1.8-1.8l2.5-2.5
			l-2.5-2.5l1.8-1.8L23,7.6l2.5-2.5l1.8,1.8l-2.5,2.5L27.3,11.9z"/>
	</g>
</g>
</svg>
