<?xml version="1.0" encoding="utf-8"?>
<!-- Generator: Adobe Illustrator 18.0.0, SVG Export Plug-In . SVG Version: 6.00 Build 0)  -->
<!DOCTYPE svg PUBLIC "-//W3C//DTD SVG 1.1//EN" "http://www.w3.org/Graphics/SVG/1.1/DTD/svg11.dtd" [
	<!ENTITY ns_extend "http://ns.adobe.com/Extensibility/1.0/">
	<!ENTITY ns_ai "http://ns.adobe.com/AdobeIllustrator/10.0/">
	<!ENTITY ns_graphs "http://ns.adobe.com/Graphs/1.0/">
	<!ENTITY ns_vars "http://ns.adobe.com/Variables/1.0/">
	<!ENTITY ns_imrep "http://ns.adobe.com/ImageReplacement/1.0/">
	<!ENTITY ns_sfw "http://ns.adobe.com/SaveForWeb/1.0/">
	<!ENTITY ns_custom "http://ns.adobe.com/GenericCustomNamespace/1.0/">
	<!ENTITY ns_adobe_xpath "http://ns.adobe.com/XPath/1.0/">
]>
<svg version="1.1" id="Lag_1" xmlns:x="&ns_extend;" xmlns:i="&ns_ai;" xmlns:graph="&ns_graphs;"
	 xmlns="http://www.w3.org/2000/svg" xmlns:xlink="http://www.w3.org/1999/xlink" x="0px" y="0px" width="500px" height="500px"
	 viewBox="0 0 500 500" enable-background="new 0 0 500 500" xml:space="preserve">
<metadata>
	<sfw  xmlns="&ns_sfw;">
		<slices></slices>
		<sliceSourceBounds  width="140.8" height="189.7" x="478.1" y="282" bottomLeftOrigin="true"></sliceSourceBounds>
		<optimizationSettings>
			<targetSettings  fileFormat="PNG24Format" targetSettingsID="0">
				<PNG24Format  transparency="true" filtered="false" matteColor="#FFFFFF" noMatteColor="false" interlaced="false">
					</PNG24Format>
			</targetSettings>
		</optimizationSettings>
	</sfw>
</metadata>
<g>
	<path fill="#FFFFFF" d="M122.4,338.7v-6.4c0-8-6.4-14.3-14.3-14.3s-14.3,6.4-14.3,14.3l0,0v1.4h8v-1.4l0,0c0-3.4,2.8-6.4,6.4-6.4
		s6.4,2.8,6.4,6.4l0,0v6.4h-12.7h-1.6h-3.2h-3.2c-2.6,0-4.8,2-4.8,4.8v4.8v1.6v3.2v1.6c0,8,6.4,14.3,14.3,14.3h9.6
		c8,0,14.3-6.4,14.3-14.3v-1.6v-3.2v-1.6v-4.8C127.2,340.9,125,338.7,122.4,338.7z M108.1,324.4c-4.4,0-8,3.4-8,8h-3.2
		c0-6.2,5-11,11-11s11,5,11,11v6.4h-3.2v-6.4C116,327.8,112.3,324.4,108.1,324.4z M124,348.3v1.6v3.2v1.6c0,6.2-5,11-11,11h-9.6
		c-6.2,0-11-5-11-11v-1.6v-3.2v-1.6v-4.8c0-1,0.6-1.6,1.6-1.6c1.2,0,2,0,3.2,0h22.3c1.2,0,2,0,3.2,0c1,0,1.6,0.6,1.6,1.6v4.8H124z"
		/>
	<path fill="#FFFFFF" d="M108.1,348.3c-1.8,0-3.2,1.4-3.2,3.2c0,1,0.4,2.8,1.2,4.2c0.4,1.2,1,2,2,2c1.2,0,1.8-1,2-2
		c0.4-1.4,1.2-3.4,1.2-4.2C111.3,349.7,109.7,348.3,108.1,348.3z"/>
</g>
<g>
	<path fill="#FFFFFF" d="M210.6,209.7c-1.8,0-3.2,1.4-3.2,3.2c0,1,0.4,2.8,1.2,4.2c0.4,1.2,1,2,2,2c1.2,0,1.8-1,2-2
		c0.4-1.4,1.2-3.4,1.2-4.2C213.9,211.1,212.2,209.7,210.6,209.7z"/>
	<path fill="#FFFFFF" d="M224.9,200v-6.4c0-8-6.4-14.3-14.3-14.3c-7.8,0-14.3,6.4-14.3,14.3v6.4c-2.5,0.1-4.6,2.1-4.6,4.8v4.8v1.6
		v3.2v1.6c0,8,6.4,14.3,14.3,14.3h9.6c8,0,14.3-6.4,14.3-14.3v-1.6v-3.2v-1.6v-4.8C229.7,202.2,227.5,200,224.9,200z M199.4,193.8
		c0-6.2,5-11,11-11s11,5,11,11v6.4h-3.2v-6.4c0.2-4.6-3.4-8-7.6-8c-4.4,0-8,3.4-8,8v6.2h-2.8h-0.4V193.8L199.4,193.8z M217.3,193.6
		v6.4h-12.7h-0.2v-6.2l0,0v-0.2c0-3.4,2.8-6.4,6.4-6.4S217.3,190,217.3,193.6z M226.5,209.7L226.5,209.7v1.6v3.2v1.6
		c0,6.2-5,11-11,11h-9.6c-6.2,0-11-5-11-11v-1.6v-3.2v-1.6v-4.8c0-1,0.6-1.6,1.6-1.6c1.2,0,2,0,3.2,0H222c1.2,0,1.8,0,3,0
		c1,0,1.6,0.6,1.6,1.6v4.8H226.5z"/>
</g>
</svg>
